<svg width="200" height="101" viewBox="0 0 200 101" fill="none" xmlns="http://www.w3.org/2000/svg">
<path d="M44.5521 26.5885C44.4323 27.7292 44.1667 27.8542 43.599 27.8958C44.1562 27.9271 44.4375 28.2083 44.526 29.2917C44.5625 28.2135 44.8646 27.9635 45.4948 27.9063C44.8646 27.8542 44.6302 27.75 44.5521 26.5885Z" fill="white"/>
<path d="M55.7031 64.1198C55.5833 65.2604 55.3177 65.3854 54.7448 65.4271C55.3021 65.4584 55.5885 65.7396 55.6771 66.8229C55.7135 65.7448 56.0156 65.4948 56.6406 65.4375C56.0156 65.3854 55.776 65.2813 55.7031 64.1198Z" fill="white"/>
<path d="M112.839 33.8906C112.719 35.026 112.453 35.1458 111.891 35.1875C112.443 35.2188 112.724 35.5 112.807 36.5677C112.844 35.5 113.146 35.25 113.771 35.1979C113.146 35.1458 112.911 35.0417 112.839 33.8906Z" fill="white"/>
<path d="M114.354 71.2448C115.271 71.2917 115.797 71.7083 115.964 73.75C115.974 73.8646 116.036 73.9219 116.146 73.9219C116.151 73.9219 116.151 73.9219 116.151 73.9219C116.271 73.9219 116.328 73.8594 116.333 73.7448C116.401 71.7552 116.932 71.3594 118.021 71.2708C118.135 71.2604 118.193 71.1979 118.193 71.0833C118.193 70.9688 118.135 70.9063 118.026 70.9011C117 70.8073 116.531 70.7708 116.385 68.5417C116.38 68.4271 116.318 68.3698 116.203 68.3646C116.089 68.3646 116.026 68.4167 116.016 68.5313C115.792 70.6771 115.318 70.8021 114.349 70.875C114.234 70.8854 114.177 70.9479 114.177 71.0625C114.182 71.1771 114.24 71.2396 114.354 71.2448ZM116.177 69.8125C116.349 70.5781 116.641 70.9271 117.099 71.099C116.547 71.3594 116.219 71.7865 116.125 72.3906C116.021 71.8177 115.724 71.3854 115.234 71.0886C115.672 70.9167 115.974 70.5677 116.177 69.8125Z" fill="white"/>
<path d="M58.3281 36.0261C58.5469 36.0261 58.7396 35.9479 58.8958 35.7917C59.0573 35.6354 59.1354 35.4479 59.1354 35.224C59.1406 35 59.0625 34.8073 58.9063 34.6511C58.75 34.4896 58.5573 34.4115 58.3385 34.4115C58.1146 34.4063 57.9219 34.4844 57.7656 34.6458C57.6042 34.8021 57.526 34.9896 57.526 35.2136C57.526 35.4375 57.599 35.625 57.7552 35.7865C57.9167 35.9427 58.1042 36.0261 58.3281 36.0261ZM58.3333 34.7813C58.4531 34.7813 58.5573 34.8229 58.6406 34.9115C58.724 34.9948 58.7656 35.099 58.7656 35.2188C58.7656 35.3438 58.724 35.4427 58.6354 35.5313C58.5521 35.6146 58.4479 35.6563 58.3281 35.6563C58.2083 35.6563 58.1042 35.6094 58.0208 35.5261C57.9375 35.4375 57.8958 35.3386 57.8958 35.2136C57.8958 35.0938 57.9375 34.9948 58.026 34.9063C58.1094 34.8229 58.2135 34.7813 58.3333 34.7813Z" fill="white"/>
<path d="M68.5729 24.4948C68.4531 24.4948 68.349 24.5365 68.2604 24.625C68.1719 24.7083 68.125 24.8177 68.125 24.9375C68.125 25.0625 68.1667 25.1667 68.2552 25.2552C68.3438 25.3438 68.4479 25.3906 68.5677 25.3906C68.6927 25.3906 68.7969 25.349 68.8854 25.2604C68.974 25.1719 69.0156 25.0677 69.0208 24.9427C69.0208 24.8229 68.9792 24.7135 68.8906 24.625C68.8021 24.5417 68.6979 24.4948 68.5729 24.4948Z" fill="white"/>
<path d="M83.2604 40.2552C83.4219 40.2552 83.5 40.1771 83.5 40.0156C83.5 39.8594 83.4219 39.776 83.2656 39.776C83.1042 39.776 83.026 39.8542 83.026 40.0156C83.026 40.1719 83.1042 40.2552 83.2604 40.2552Z" fill="white"/>
<path d="M160.005 70.9427C160.13 70.9427 160.234 70.8959 160.328 70.8073C160.417 70.7188 160.464 70.6146 160.464 70.4844C160.464 70.3594 160.417 70.25 160.328 70.1615C160.24 70.0729 160.135 70.0261 160.01 70.0261C159.88 70.0261 159.776 70.0677 159.688 70.1563C159.594 70.2448 159.552 70.3542 159.552 70.4792C159.547 70.6042 159.594 70.7136 159.682 70.8021C159.771 70.8959 159.875 70.9375 160.005 70.9427Z" fill="white"/>
<path d="M166.703 40.2448C166.833 40.2448 166.938 40.2031 167.026 40.1146C167.12 40.026 167.161 39.9167 167.167 39.7917C167.167 39.6615 167.12 39.5573 167.031 39.4635C166.943 39.375 166.839 39.3333 166.714 39.3281C166.583 39.3281 166.479 39.375 166.385 39.4635C166.297 39.5521 166.255 39.6562 166.25 39.7865C166.25 39.9115 166.297 40.0208 166.385 40.1094C166.474 40.1979 166.578 40.2448 166.703 40.2448Z" fill="white"/>
<path d="M137.104 37.0469C137.229 37.0469 137.339 37.0052 137.427 36.9167C137.516 36.8281 137.562 36.7188 137.562 36.5938C137.562 36.4688 137.521 36.3594 137.432 36.2708C137.344 36.1771 137.234 36.1354 137.109 36.1302C136.984 36.1302 136.875 36.1771 136.786 36.2656C136.698 36.3542 136.651 36.4583 136.651 36.5886C136.651 36.7136 136.693 36.8229 136.781 36.9115C136.87 37 136.979 37.0469 137.104 37.0469Z" fill="white"/>
<path d="M100.604 24.4948C100.729 24.4948 100.839 24.4531 100.927 24.3646C101.016 24.276 101.063 24.1667 101.063 24.0417C101.063 23.9167 101.021 23.8073 100.932 23.7188C100.844 23.625 100.734 23.5833 100.609 23.5833C100.484 23.5781 100.375 23.625 100.286 23.7135C100.198 23.8021 100.151 23.9115 100.151 24.0365C100.151 24.1615 100.193 24.2708 100.281 24.3594C100.37 24.4479 100.479 24.4948 100.604 24.4948Z" fill="white"/>
<path d="M127.99 25.0104C128.13 25.0104 128.255 24.9636 128.354 24.8594C128.458 24.7604 128.51 24.6406 128.51 24.4948C128.51 24.3542 128.464 24.2292 128.359 24.125C128.26 24.0261 128.141 23.974 127.995 23.974C127.854 23.974 127.729 24.0208 127.63 24.125C127.526 24.224 127.474 24.3438 127.474 24.4896C127.474 24.6302 127.526 24.7552 127.625 24.8542C127.724 24.9583 127.849 25.0104 127.99 25.0104ZM127.995 24.3438C128.094 24.3438 128.141 24.3958 128.141 24.4948C128.141 24.5886 128.089 24.6406 127.99 24.6406C127.896 24.6406 127.844 24.5886 127.844 24.4896C127.844 24.3906 127.896 24.3438 127.995 24.3438Z" fill="white"/>
<path d="M38.2865 68.6667C38.2917 68.5312 38.2396 68.4167 38.1458 68.3177C38.0521 68.224 37.9375 68.1719 37.8021 68.1719C37.6667 68.1719 37.5469 68.2188 37.4531 68.3125C37.3542 68.4115 37.3073 68.526 37.3073 68.6615C37.3073 68.7969 37.3542 68.9115 37.4479 69.0104C37.5417 69.1042 37.6615 69.1562 37.7969 69.1562C37.9323 69.1562 38.0469 69.1094 38.1406 69.0156C38.2396 68.9167 38.2865 68.8021 38.2865 68.6667ZM37.6771 68.6615C37.6771 68.5833 37.7188 68.5417 37.7969 68.5417C37.8802 68.5417 37.9167 68.5833 37.9167 68.6667C37.9167 68.7448 37.875 68.7865 37.7969 68.7865C37.7188 68.7865 37.6771 68.7448 37.6771 68.6615Z" fill="white"/>
<path d="M32.1198 44.5729C31.6823 44.5365 31.5365 44.526 31.474 43.6094C31.4688 43.5 31.4063 43.4427 31.2969 43.4375C31.1823 43.4375 31.1198 43.4896 31.1094 43.6042C31.0104 44.5208 30.8281 44.5365 30.4531 44.5625C30.3385 44.5729 30.2812 44.6354 30.2812 44.75C30.2865 44.8646 30.3438 44.9271 30.4583 44.9323C30.776 44.9479 31.0104 45.0313 31.0833 45.9635C31.0938 46.0781 31.1562 46.1354 31.2656 46.1354C31.2708 46.1354 31.2708 46.1354 31.2708 46.1354C31.3906 46.1302 31.4479 46.0729 31.4531 45.9531C31.4844 45.0625 31.724 44.9792 32.1146 44.9427C32.2292 44.9323 32.2865 44.875 32.2865 44.7604C32.2865 44.6458 32.2292 44.5833 32.1198 44.5729ZM31.2604 45.0521C31.2083 44.9427 31.1406 44.849 31.0521 44.7708C31.1458 44.6979 31.2188 44.6094 31.2708 44.5C31.3177 44.6094 31.3906 44.7031 31.4844 44.7708C31.3906 44.849 31.3125 44.9427 31.2604 45.0521Z" fill="white"/>
<path d="M167.562 55.7031C167.13 55.6667 166.979 55.6563 166.922 54.7448C166.917 54.6302 166.854 54.5729 166.74 54.5677C166.63 54.5677 166.568 54.6198 166.552 54.7344C166.458 55.6511 166.271 55.6667 165.901 55.6927C165.786 55.7031 165.729 55.7656 165.729 55.8802C165.729 56 165.792 56.0573 165.906 56.0625C166.224 56.0833 166.453 56.1667 166.531 57.0938C166.536 57.2083 166.599 57.2656 166.714 57.2656H166.719C166.833 57.2604 166.896 57.2031 166.901 57.0833C166.927 56.1927 167.172 56.1094 167.562 56.0729C167.677 56.0625 167.734 56.0052 167.734 55.8906C167.734 55.7761 167.677 55.7136 167.562 55.7031ZM166.703 56.1823C166.656 56.0729 166.583 55.9792 166.495 55.9011C166.594 55.8281 166.667 55.7396 166.719 55.6302C166.766 55.7396 166.833 55.8333 166.932 55.9063C166.833 55.9792 166.76 56.0729 166.703 56.1823Z" fill="white"/>
<path d="M129.849 77.5208C129.641 77.5208 129.464 77.5938 129.318 77.7396C129.167 77.8854 129.094 78.0625 129.094 78.2656C129.094 78.474 129.167 78.6511 129.312 78.8021C129.453 78.9479 129.63 79.0208 129.839 79.0261C130.047 79.0261 130.224 78.9531 130.37 78.8073C130.516 78.6615 130.594 78.4844 130.594 78.2761C130.594 78.0677 130.521 77.8906 130.375 77.7448C130.229 77.599 130.057 77.5208 129.849 77.5208ZM129.839 78.6511C129.734 78.6511 129.646 78.6146 129.573 78.5417C129.5 78.4636 129.464 78.375 129.464 78.2708C129.464 78.1667 129.5 78.0729 129.578 78C129.651 77.9271 129.74 77.8906 129.844 77.8906C129.953 77.8906 130.042 77.9323 130.115 78.0052C130.188 78.0781 130.224 78.1719 130.224 78.2761C130.224 78.3802 130.182 78.4688 130.109 78.5417C130.036 78.6146 129.948 78.6511 129.839 78.6511Z" fill="white"/>
<path d="M87.8073 64.8073C87.6042 64.8073 87.4271 64.8802 87.276 65.0261C87.1302 65.1719 87.0573 65.349 87.0573 65.5521C87.0521 65.7604 87.125 65.9375 87.2708 66.0886C87.4167 66.2344 87.5937 66.3073 87.8021 66.3125C88.0052 66.3125 88.1823 66.2396 88.3333 66.0938C88.4792 65.9479 88.5521 65.7709 88.5521 65.5625C88.5573 65.3542 88.4844 65.1771 88.3385 65.0313C88.1927 64.8854 88.0156 64.8073 87.8073 64.8073ZM87.8021 65.9375C87.6979 65.9375 87.6094 65.9011 87.5365 65.8281C87.4583 65.75 87.4219 65.6615 87.4271 65.5573C87.4271 65.4531 87.4635 65.3646 87.5365 65.2865C87.6146 65.2136 87.7031 65.1771 87.8073 65.1771C87.9114 65.1771 88 65.2188 88.0729 65.2917C88.1458 65.3646 88.1823 65.4584 88.1823 65.5625C88.1823 65.6667 88.1458 65.7552 88.0729 65.8281C87.9948 65.9011 87.9062 65.9427 87.8021 65.9375Z" fill="white"/>
<path d="M86.3333 27.8385C85.4792 27.8281 84.6354 27.7396 83.8021 27.5677C84.0365 27.25 84.2865 26.9531 84.5573 26.6719C84.2656 26.9531 83.9531 27.2135 83.625 27.4479C83.6198 27.4427 83.6146 27.4323 83.6042 27.4219C83.4167 27.1042 83.2917 25.4635 83.2917 24.9375C83.2917 25.4635 83.1719 27.1042 82.9844 27.4219C82.6406 27.1615 82.3125 26.8854 82 26.5833C82.2917 26.8906 82.5677 27.2135 82.8229 27.5521C81.9583 27.7396 81.0833 27.8333 80.1979 27.8385C80.724 27.8385 82.5625 27.9583 82.8802 28.151C82.8854 28.151 82.8906 28.1563 82.8958 28.1615C82.6198 28.5417 82.3229 28.8958 82 29.2344C82.3229 28.9219 82.6667 28.6302 83.026 28.3594C83.1979 29.2135 83.2865 30.0729 83.2917 30.9427C83.3021 30.0625 83.3906 29.1927 83.5729 28.3281C83.9375 28.599 84.2865 28.8906 84.6198 29.2083C84.2969 28.875 84 28.5156 83.7292 28.1406C84.0938 27.9531 85.8177 27.8385 86.3333 27.8385Z" fill="white"/>
<path d="M145.505 71.0417C144.818 71.0365 144.135 70.9636 143.458 70.8229C143.646 70.5677 143.849 70.3281 144.068 70.099C143.833 70.3281 143.583 70.5365 143.318 70.7292C143.312 70.724 143.307 70.7136 143.302 70.7083C143.146 70.4479 143.047 69.1198 143.047 68.6927C143.047 69.1198 142.948 70.4479 142.797 70.7083C142.521 70.4948 142.255 70.2708 142 70.0261C142.24 70.2761 142.464 70.5365 142.667 70.8125C141.969 70.9635 141.26 71.0365 140.542 71.0417C140.969 71.0417 142.458 71.1406 142.714 71.2917C142.719 71.2969 142.724 71.3021 142.729 71.3073C142.505 71.6094 142.26 71.8958 142 72.1719C142.266 71.9167 142.542 71.6823 142.833 71.4636C142.969 72.1563 143.042 72.849 143.047 73.5521C143.052 72.8438 143.13 72.1354 143.271 71.4427C143.573 71.6563 143.854 71.8958 144.12 72.1511C143.859 71.8802 143.62 71.5886 143.401 71.2865C144.094 71.125 144.797 71.0417 145.505 71.0417Z" fill="white"/>
<path d="M72.8177 75.8594C72.2344 75.8542 71.6615 75.7917 71.0937 75.6719C71.25 75.4584 71.4219 75.2552 71.6042 75.0677C71.4062 75.2552 71.1979 75.4323 70.974 75.5938C70.9687 75.5886 70.9635 75.5834 70.9583 75.5729C70.8177 75.0209 70.7448 74.4584 70.75 73.8854C70.75 74.4584 70.6823 75.0209 70.5365 75.5729V75.5781C70.3021 75.4011 70.0833 75.2084 69.8698 75.0052C70.0677 75.2136 70.2552 75.4323 70.4271 75.6615C69.8385 75.7917 69.2448 75.8542 68.6458 75.8594C69.2604 75.8542 69.8698 75.9271 70.4687 76.0677C70.474 76.0729 70.474 76.0781 70.4792 76.0781C70.2917 76.3334 70.0885 76.5781 69.8698 76.8073C70.0885 76.5938 70.3229 76.3959 70.5677 76.2136C70.6823 76.7917 70.7448 77.3802 70.75 77.9688C70.7552 77.3698 70.8177 76.7761 70.9375 76.1927C71.1875 76.375 71.4271 76.5729 71.6458 76.7865C71.4271 76.5625 71.2292 76.3177 71.0469 76.0625C71.625 75.9271 72.2187 75.8594 72.8177 75.8594Z" fill="white"/>
<path d="M150.26 25.7292C149.677 25.724 149.104 25.6615 148.536 25.5469C148.698 25.3333 148.865 25.1302 149.047 24.9375C148.849 25.1302 148.641 25.3021 148.417 25.4688C148.411 25.4583 148.406 25.4531 148.406 25.4479C148.26 24.8906 148.188 24.3281 148.193 23.7552C148.193 24.3281 148.125 24.8906 147.979 25.4479C147.745 25.2708 147.526 25.0833 147.312 24.8802C147.51 25.0886 147.698 25.3073 147.875 25.5365C147.286 25.6615 146.687 25.724 146.089 25.7292C146.703 25.7292 147.312 25.7969 147.911 25.9427C147.917 25.9427 147.917 25.9479 147.922 25.9479C147.734 26.2083 147.531 26.4479 147.312 26.6771C147.531 26.4636 147.766 26.2656 148.01 26.0833C148.125 26.6667 148.188 27.25 148.193 27.8386C148.198 27.2396 148.26 26.6511 148.38 26.0625C148.63 26.2448 148.87 26.4427 149.094 26.6615C148.875 26.4323 148.672 26.1927 148.49 25.9323C149.068 25.7969 149.661 25.7292 150.26 25.7292Z" fill="white"/>
<path d="M101.229 76.9427C100.667 76.9584 100.135 76.8334 99.6354 76.5625C99.5833 76.5313 99.5417 76.4896 99.5104 76.4375C99.2448 75.9375 99.1146 75.4063 99.1302 74.8386C99.1458 75.4063 99.0208 75.9375 98.7552 76.4375C98.724 76.4896 98.6823 76.5313 98.6302 76.5625C98.1302 76.8334 97.599 76.9584 97.0312 76.9427C97.599 76.9271 98.1302 77.0573 98.6302 77.3229C98.6823 77.3542 98.724 77.3959 98.7552 77.4479C99.0208 77.9479 99.1458 78.4844 99.1302 79.0469C99.1146 78.4844 99.2448 77.9479 99.5104 77.4479C99.5417 77.3959 99.5833 77.3542 99.6354 77.3229C100.135 77.0573 100.667 76.9271 101.229 76.9427Z" fill="white"/>
<path d="M122.708 60.0937C122.297 60.0937 121.891 60.0677 121.484 60.0156C121.078 59.9687 120.677 59.8906 120.276 59.7865C119.88 59.6875 119.49 59.5625 119.109 59.4115C118.729 59.2604 118.359 59.0885 118 58.8906C117.641 58.6927 117.292 58.474 116.958 58.2344C116.625 57.9948 116.312 57.7344 116.01 57.4583C115.708 57.1771 115.427 56.8802 115.161 56.5625C114.901 56.25 114.656 55.9219 114.432 55.5729C114.214 55.2292 114.01 54.875 113.833 54.5C113.656 54.1302 113.5 53.75 113.37 53.3646C113.24 52.974 113.135 52.5781 113.052 52.1771C112.969 51.7708 112.911 51.3646 112.885 50.9583C112.854 50.5469 112.844 50.1354 112.865 49.724C112.885 49.3177 112.932 48.9062 113 48.5052C113.073 48.099 113.167 47.6979 113.286 47.3073C113.406 46.9167 113.552 46.5312 113.719 46.1562C113.891 45.7812 114.078 45.4167 114.292 45.0677C114.505 44.7135 114.74 44.3802 114.995 44.0573C115.25 43.7344 115.521 43.4323 115.818 43.1458C116.109 42.8542 116.417 42.5885 116.745 42.3385C117.068 42.0885 117.411 41.8646 117.766 41.6562C118.12 41.4479 118.484 41.2656 118.865 41.1042C119.24 40.9427 119.625 40.8073 120.021 40.6979C120.411 40.5833 120.812 40.4948 121.219 40.4323C121.625 40.3698 122.031 40.3333 122.443 40.3229C122.849 40.3125 123.26 40.3229 123.667 40.3646C124.073 40.4062 124.479 40.4687 124.88 40.5573C125.281 40.651 125.672 40.7656 126.057 40.901C126.443 41.0417 126.818 41.2031 127.182 41.3906C127.552 41.5781 127.901 41.7864 128.24 42.0156C128.583 42.2448 128.906 42.4948 129.214 42.7656C129.521 43.0364 129.812 43.3229 130.083 43.6302C130.359 43.9375 130.609 44.2604 130.844 44.599C131.078 44.9375 131.286 45.2917 131.474 45.6562C131.661 46.0208 131.828 46.3958 131.969 46.7812C132.115 47.1667 132.229 47.5573 132.323 47.9583C132.417 48.3594 132.484 48.7604 132.526 49.1719C132.573 49.5781 132.589 49.9896 132.578 50.401C132.573 50.8125 132.542 51.2187 132.479 51.625C132.422 52.0312 132.339 52.4323 132.229 52.8333C132.12 53.2292 131.99 53.6146 131.828 53.9948C131.672 54.375 131.495 54.7448 131.292 55.099C131.089 55.4583 130.865 55.8021 130.62 56.1302C130.375 56.4583 130.109 56.7708 129.823 57.0677C129.542 57.3646 129.24 57.6406 128.917 57.8958C128.599 58.1562 128.266 58.3958 127.917 58.6094C127.568 58.8281 127.208 59.0208 126.839 59.1927C126.464 59.3646 126.083 59.5104 125.693 59.6354C124.724 59.9427 123.729 60.0937 122.708 60.0937ZM122.708 40.6771C122.312 40.6771 121.922 40.7031 121.531 40.75C121.141 40.8021 120.755 40.875 120.37 40.974C119.99 41.0677 119.615 41.1927 119.25 41.3333C118.88 41.4792 118.526 41.6458 118.177 41.8333C117.833 42.026 117.5 42.2344 117.177 42.4635C116.859 42.6979 116.552 42.9479 116.266 43.2135C115.974 43.4844 115.703 43.7708 115.453 44.0729C115.198 44.375 114.964 44.6927 114.75 45.026C114.536 45.3594 114.344 45.7031 114.172 46.0573C114 46.4115 113.854 46.776 113.729 47.151C113.599 47.526 113.5 47.9062 113.422 48.2969C113.344 48.6823 113.286 49.0729 113.26 49.4687C113.229 49.8646 113.224 50.2552 113.24 50.651C113.26 51.0469 113.307 51.4375 113.375 51.8281C113.443 52.2187 113.531 52.599 113.646 52.9792C113.766 53.3542 113.901 53.724 114.062 54.0833C114.224 54.4479 114.411 54.7969 114.615 55.1354C114.818 55.4687 115.042 55.7969 115.292 56.1042C115.536 56.4115 115.797 56.7083 116.078 56.9844C116.359 57.2604 116.661 57.5156 116.974 57.7552C117.286 57.9948 117.615 58.2135 117.953 58.4115C118.297 58.6146 118.646 58.7865 119.01 58.9427C119.375 59.099 119.745 59.2292 120.125 59.3385C120.505 59.4427 120.885 59.5312 121.276 59.5885C121.667 59.651 122.057 59.6823 122.453 59.6979C122.849 59.7083 123.24 59.6927 123.635 59.6562C124.026 59.6198 124.411 59.5573 124.797 59.4687C125.182 59.3802 125.562 59.2708 125.932 59.1354C126.302 59.0052 126.667 58.849 127.016 58.6667C127.37 58.4896 127.708 58.2917 128.031 58.0677C128.359 57.849 128.672 57.6042 128.969 57.3437C129.266 57.0833 129.542 56.8073 129.807 56.5104C130.068 56.2187 130.312 55.9062 130.536 55.5833C130.76 55.2552 130.964 54.9167 131.141 54.5677C131.323 54.2135 131.484 53.8542 131.62 53.4844C131.755 53.1146 131.87 52.7344 131.958 52.349C132.047 51.9635 132.115 51.5781 132.156 51.1823C132.198 50.7917 132.214 50.3958 132.208 50C132.198 49.6042 132.167 49.2135 132.109 48.8229C132.052 48.4323 131.974 48.0417 131.87 47.6615C131.76 47.2812 131.635 46.9115 131.484 46.5417C131.333 46.1771 131.161 45.8229 130.964 45.4792C130.771 45.1354 130.552 44.8073 130.318 44.4896C130.083 44.1719 129.828 43.875 129.552 43.5885C129.281 43.3021 128.99 43.0365 128.682 42.7917C128.375 42.5417 128.057 42.3125 127.719 42.1042C127.385 41.8958 127.036 41.7083 126.682 41.5469C126.323 41.3802 125.953 41.2396 125.578 41.1198C124.646 40.8229 123.687 40.6771 122.708 40.6771Z" fill="white"/>
<path d="M121.297 42.0938C121.297 41.9583 121.245 41.8438 121.146 41.75C121.052 41.6563 120.932 41.6094 120.797 41.6146C120.661 41.6146 120.547 41.6667 120.453 41.7656C120.359 41.8594 120.312 41.9792 120.318 42.1146C120.318 42.25 120.37 42.3646 120.469 42.4583C120.563 42.5521 120.682 42.599 120.818 42.599C120.953 42.5938 121.068 42.5417 121.161 42.4479C121.255 42.349 121.302 42.2292 121.297 42.0938ZM121.073 42.099C121.078 42.276 120.99 42.3698 120.813 42.3698C120.635 42.375 120.547 42.2865 120.542 42.1094C120.536 41.9323 120.625 41.8438 120.802 41.8385C120.979 41.8333 121.068 41.9219 121.073 42.099Z" fill="white"/>
<path d="M117.318 44.2448C117.224 44.2448 117.172 44.1979 117.172 44.1042C117.172 44.0052 117.219 43.9583 117.312 43.9531C117.411 43.9531 117.458 44 117.464 44.099C117.464 44.1927 117.417 44.2448 117.318 44.2448Z" fill="white"/>
<path d="M117.865 52.6615C117.766 52.6667 117.719 52.6198 117.714 52.5208C117.714 52.4271 117.76 52.375 117.859 52.375C117.953 52.3698 118.005 52.4167 118.005 52.5156C118.005 52.6146 117.958 52.6615 117.865 52.6615Z" fill="white"/>
<path d="M115.849 54.8854C115.708 54.8906 115.589 54.8438 115.49 54.7448C115.385 54.6458 115.333 54.5261 115.333 54.3854C115.328 54.2448 115.375 54.125 115.474 54.0261C115.568 53.9219 115.688 53.8698 115.828 53.8698C115.969 53.8646 116.089 53.9115 116.193 54.0104C116.292 54.1094 116.344 54.224 116.349 54.3646C116.349 54.5052 116.302 54.6302 116.208 54.7292C116.109 54.8333 115.99 54.8854 115.849 54.8854Z" fill="white"/>
<path d="M119.698 57.4271C119.693 57.2188 119.583 57.1146 119.375 57.1198C119.167 57.125 119.063 57.2292 119.068 57.4427C119.068 57.6511 119.177 57.7552 119.385 57.75C119.599 57.7448 119.698 57.6406 119.698 57.4271ZM119.469 57.4323C119.474 57.4948 119.443 57.5261 119.385 57.5261C119.323 57.5261 119.292 57.4948 119.292 57.4375C119.292 57.375 119.318 57.3438 119.38 57.3438C119.438 57.3438 119.469 57.375 119.469 57.4323Z" fill="white"/>
<path d="M114.26 50.375C114.458 50.3698 114.557 50.2708 114.552 50.0677C114.547 49.8698 114.443 49.7708 114.245 49.776C114.047 49.7813 113.948 49.8802 113.953 50.0781C113.958 50.2813 114.057 50.3802 114.26 50.375ZM114.255 50.1458C114.203 50.151 114.177 50.125 114.177 50.0781C114.177 50.026 114.203 50 114.25 50C114.297 50 114.323 50.026 114.323 50.0729C114.328 50.1198 114.302 50.1458 114.255 50.1458Z" fill="white"/>
<path d="M116.948 48.151C116.948 48.2813 116.995 48.3854 117.089 48.474C117.177 48.5625 117.286 48.6042 117.411 48.599C117.536 48.599 117.646 48.5521 117.734 48.4583C117.818 48.3698 117.865 48.2604 117.859 48.1354C117.859 48.0052 117.812 47.9011 117.719 47.8125C117.63 47.724 117.521 47.6823 117.396 47.6875C117.266 47.6875 117.161 47.7344 117.073 47.8281C116.984 47.9167 116.943 48.026 116.948 48.151ZM117.172 48.1458C117.167 47.9948 117.245 47.9167 117.396 47.9115C117.552 47.9063 117.63 47.9844 117.635 48.1406C117.635 48.2917 117.562 48.3698 117.406 48.375C117.255 48.3802 117.177 48.3021 117.172 48.1458Z" fill="white"/>
<path d="M122.375 51.7604C122.198 51.7656 122.109 51.8542 122.115 52.0312C122.115 52.2083 122.208 52.2969 122.385 52.2917C122.562 52.2865 122.646 52.1979 122.646 52.0208C122.641 51.8437 122.552 51.7552 122.375 51.7604Z" fill="white"/>
<path d="M124.583 57.6615C124.521 57.6615 124.495 57.6927 124.495 57.7552C124.495 57.8125 124.526 57.8438 124.589 57.8386C124.646 57.8386 124.677 57.8073 124.677 57.75C124.672 57.6875 124.641 57.6615 124.583 57.6615Z" fill="white"/>
<path d="M125.635 40.9375C124.656 41.25 123.745 41.7083 122.911 42.3073C122.078 42.9115 121.354 43.6302 120.745 44.4635C120.141 45.2917 119.677 46.1979 119.354 47.1823C119.036 48.1615 118.875 49.1667 118.875 50.1979C118.875 51.2292 119.036 52.2344 119.354 53.2135C119.677 54.1979 120.141 55.1042 120.745 55.9323C121.354 56.7656 122.078 57.4844 122.911 58.0833C123.745 58.6875 124.656 59.1458 125.635 59.4583C126.615 59.1458 127.526 58.6875 128.359 58.0833C129.198 57.4844 129.917 56.7656 130.526 55.9323C131.13 55.1042 131.594 54.1979 131.917 53.2135C132.234 52.2344 132.396 51.2292 132.396 50.1979C132.396 49.1667 132.234 48.1615 131.917 47.1823C131.594 46.1979 131.13 45.2917 130.526 44.4635C129.917 43.6302 129.198 42.9115 128.359 42.3073C127.526 41.7083 126.615 41.25 125.635 40.9375ZM122.396 52.7656C122.188 52.7708 122.016 52.7031 121.865 52.5625C121.719 52.4219 121.641 52.2448 121.641 52.0417C121.635 51.8385 121.703 51.6615 121.844 51.5104C121.984 51.3646 122.156 51.2865 122.365 51.2865C122.568 51.2812 122.745 51.349 122.891 51.4896C123.036 51.6302 123.115 51.8073 123.12 52.0104C123.12 52.2135 123.052 52.3906 122.911 52.5417C122.771 52.6875 122.599 52.7656 122.396 52.7656ZM123.052 44.3906C122.958 44.3906 122.906 44.3438 122.906 44.25C122.906 44.151 122.953 44.1042 123.047 44.099C123.146 44.099 123.193 44.1458 123.198 44.2448C123.198 44.3385 123.151 44.3906 123.052 44.3906ZM124.594 58.0677C124.38 58.0729 124.276 57.9688 124.271 57.7552C124.266 57.5469 124.37 57.4375 124.578 57.4375C124.786 57.4323 124.896 57.5312 124.901 57.7448C124.906 57.9531 124.802 58.0625 124.594 58.0677ZM124.635 48.1406C124.453 48.1458 124.359 48.0573 124.354 47.875C124.354 47.6927 124.443 47.599 124.625 47.599C124.802 47.5937 124.896 47.6823 124.901 47.8646C124.906 48.0469 124.812 48.1406 124.635 48.1406ZM128.911 44.9115C129.01 44.9115 129.057 44.9583 129.057 45.0521C129.062 45.151 129.016 45.2031 128.917 45.2031C128.823 45.2031 128.771 45.1562 128.771 45.0625C128.766 44.9635 128.818 44.9167 128.911 44.9115ZM128.776 52.5677C128.578 52.5677 128.474 52.474 128.469 52.2708C128.469 52.0729 128.562 51.9688 128.766 51.9688C128.964 51.9635 129.062 52.0625 129.068 52.2604C129.073 52.4583 128.974 52.5625 128.776 52.5677Z" fill="white"/>
<path d="M128.771 52.1927C128.719 52.1927 128.693 52.2188 128.698 52.2656C128.698 52.3177 128.724 52.3386 128.771 52.3386C128.823 52.3386 128.844 52.3125 128.844 52.2656C128.844 52.2136 128.818 52.1927 128.771 52.1927Z" fill="white"/>
<path d="M97.9687 60.0938C97.3229 60.0938 96.6823 60.0313 96.0469 59.9063C95.4115 59.7813 94.7917 59.5886 94.1927 59.3438C93.5937 59.0938 93.026 58.7865 92.4844 58.4271C91.9479 58.0677 91.4479 57.6563 90.9896 57.1979C90.5312 56.7396 90.1198 56.2396 89.7604 55.6979C89.401 55.1563 89.099 54.5886 88.849 53.9844C88.599 53.3854 88.4115 52.7656 88.2865 52.1302C88.1615 51.4896 88.099 50.849 88.099 50.1979C88.099 49.5469 88.1615 48.9063 88.2865 48.2656C88.4115 47.6302 88.599 47.0104 88.849 46.4115C89.099 45.8073 89.401 45.2396 89.7604 44.6979C90.1198 44.1563 90.5312 43.6563 90.9896 43.1979C91.4479 42.7396 91.9479 42.3281 92.4844 41.9688C93.026 41.6094 93.5937 41.3021 94.1927 41.0521C94.7917 40.8021 95.4115 40.6146 96.0469 40.4896C96.6823 40.3646 97.3229 40.3021 97.9687 40.3021C98.6198 40.3021 99.2604 40.3646 99.8958 40.4896C100.531 40.6146 101.151 40.8021 101.75 41.0521C102.349 41.3021 102.917 41.6094 103.458 41.9688C103.995 42.3281 104.495 42.7396 104.953 43.1979C105.411 43.6563 105.823 44.1563 106.182 44.6979C106.542 45.2396 106.844 45.8073 107.094 46.4115C107.339 47.0104 107.526 47.6302 107.656 48.2656C107.781 48.9063 107.844 49.5469 107.844 50.1979C107.844 50.849 107.781 51.4896 107.651 52.1302C107.526 52.7656 107.339 53.3854 107.089 53.9844C106.844 54.5833 106.536 55.1563 106.177 55.6927C105.818 56.2344 105.406 56.7344 104.948 57.1927C104.49 57.6511 103.995 58.0625 103.453 58.4219C102.917 58.7865 102.349 59.0886 101.75 59.3386C101.151 59.5886 100.531 59.7761 99.8958 59.9011C99.2604 60.0313 98.6198 60.0938 97.9687 60.0938ZM97.9687 40.6771C97.349 40.6771 96.7292 40.7344 96.1198 40.8594C95.5052 40.9792 94.9115 41.1615 94.3385 41.4011C93.7604 41.6406 93.2135 41.9323 92.6927 42.2813C92.1771 42.6302 91.6979 43.0208 91.2552 43.4636C90.8125 43.9063 90.4219 44.3854 90.0729 44.9063C89.7292 45.4271 89.4323 45.974 89.1979 46.5521C88.9583 47.1302 88.776 47.7292 88.6562 48.3386C88.5312 48.9531 88.474 49.5729 88.474 50.1979C88.474 50.8229 88.5312 51.4427 88.6562 52.0573C88.776 52.6667 88.9583 53.2656 89.1979 53.8438C89.4323 54.4219 89.7292 54.9688 90.0729 55.4896C90.4219 56.0052 90.8125 56.4896 91.2552 56.9323C91.6979 57.375 92.1771 57.7656 92.6927 58.1146C93.2135 58.4636 93.7604 58.7552 94.3385 58.9948C94.9115 59.2344 95.5052 59.4167 96.1198 59.5365C96.7292 59.6563 97.349 59.7188 97.9687 59.7188C98.5937 59.7188 99.2135 59.6563 99.8229 59.5365C100.438 59.4167 101.031 59.2344 101.604 58.9948C102.182 58.7552 102.729 58.4636 103.25 58.1146C103.766 57.7656 104.245 57.375 104.687 56.9323C105.13 56.4896 105.521 56.0052 105.87 55.4896C106.214 54.9688 106.51 54.4219 106.745 53.8438C106.984 53.2656 107.167 52.6667 107.286 52.0573C107.406 51.4427 107.469 50.8229 107.469 50.1979C107.469 49.5729 107.406 48.9531 107.286 48.3386C107.161 47.7292 106.984 47.1302 106.745 46.5573C106.505 45.9792 106.214 45.4323 105.865 44.9115C105.521 44.3906 105.125 43.9115 104.682 43.4688C104.245 43.0261 103.766 42.6302 103.245 42.2813C102.729 41.9375 102.182 41.6406 101.604 41.4011C101.026 41.1615 100.438 40.9844 99.8229 40.8594C99.2135 40.7396 98.5937 40.6771 97.9687 40.6771Z" fill="white"/>
<path d="M95.599 54.0156C95.7344 54.0208 95.849 53.974 95.9479 53.8802C96.0469 53.7865 96.0937 53.6667 96.099 53.5313C96.099 53.3958 96.0573 53.2813 95.9635 53.1823C95.8698 53.0833 95.7552 53.0313 95.6146 53.0313C95.4792 53.0261 95.3646 53.0729 95.2656 53.1667C95.1667 53.2604 95.1198 53.375 95.1146 53.5104C95.1146 53.6511 95.1562 53.7656 95.2552 53.8646C95.349 53.9636 95.4635 54.0104 95.599 54.0156ZM95.6146 53.2552C95.7917 53.2604 95.875 53.349 95.875 53.5261C95.8698 53.7083 95.7812 53.7917 95.599 53.7917C95.4219 53.7865 95.3385 53.6927 95.3437 53.5156C95.3437 53.3386 95.4375 53.2552 95.6146 53.2552Z" fill="white"/>
<path d="M99.1094 43C99.2448 43.0052 99.3594 42.9583 99.4583 42.8646C99.5573 42.7708 99.6094 42.6563 99.6094 42.5156C99.6146 42.3802 99.5677 42.2656 99.474 42.1667C99.3802 42.0677 99.2656 42.0156 99.1302 42.0156C98.9948 42.0104 98.875 42.0573 98.776 42.1511C98.6823 42.2448 98.6302 42.3594 98.625 42.5C98.625 42.6354 98.6719 42.75 98.7656 42.849C98.8594 42.9479 98.974 42.9948 99.1094 43ZM99.125 42.2396C99.3021 42.2448 99.3906 42.3333 99.3854 42.5156C99.3802 42.6927 99.2917 42.7761 99.1146 42.7761C98.9375 42.7708 98.849 42.6823 98.8542 42.5C98.8542 42.3229 98.9479 42.2396 99.125 42.2396Z" fill="white"/>
<path d="M90.7448 52.4271C90.5625 52.4271 90.4687 52.5156 90.4687 52.6979C90.4635 52.8802 90.5521 52.9688 90.7344 52.974C90.9166 52.9792 91.0052 52.8906 91.0104 52.7083C91.0156 52.5261 90.9271 52.4323 90.7448 52.4271Z" fill="white"/>
<path d="M102.604 44.6511C102.703 44.6511 102.75 44.6042 102.755 44.5052C102.755 44.4115 102.708 44.3594 102.615 44.3594C102.516 44.3542 102.469 44.4011 102.464 44.5C102.464 44.599 102.51 44.6458 102.604 44.6511Z" fill="white"/>
<path d="M91.0104 45.6042C91.1042 45.6094 91.1562 45.5625 91.1562 45.4635C91.1562 45.3646 91.1094 45.3177 91.0156 45.3177C90.9167 45.3125 90.8698 45.3594 90.8646 45.4583C90.8646 45.5521 90.9115 45.6042 91.0104 45.6042Z" fill="white"/>
<path d="M101.125 57.1302C101.224 57.1354 101.271 57.0834 101.276 56.9896C101.276 56.8906 101.229 56.8438 101.13 56.8386C101.036 56.8386 100.984 56.8854 100.984 56.9844C100.984 57.0781 101.031 57.1302 101.125 57.1302Z" fill="white"/>
<path d="M96.2344 58.3802C96.4427 58.3854 96.5521 58.2812 96.5521 58.0729C96.5573 57.8594 96.4531 57.75 96.2448 57.75C96.0365 57.7448 95.9271 57.849 95.9219 58.0573C95.9219 58.2656 96.0208 58.375 96.2344 58.3802ZM96.2396 57.974C96.3021 57.974 96.3281 58.0052 96.3281 58.0677C96.3281 58.125 96.2969 58.1563 96.2344 58.1563C96.1771 58.151 96.1458 58.1198 96.151 58.0625C96.151 58 96.1823 57.974 96.2396 57.974Z" fill="white"/>
<path d="M104.917 54.2708C105.125 54.276 105.234 54.1719 105.24 53.9583C105.24 53.75 105.141 53.6406 104.927 53.6354C104.719 53.6354 104.609 53.7344 104.609 53.9479C104.604 54.1563 104.708 54.2656 104.917 54.2708ZM104.922 53.8646C104.984 53.8646 105.016 53.8958 105.01 53.9531C105.01 54.0156 104.979 54.0469 104.922 54.0417C104.859 54.0417 104.833 54.0104 104.833 53.9531C104.833 53.8906 104.865 53.8646 104.922 53.8646Z" fill="white"/>
<path d="M106.344 48.9583C106.349 48.7604 106.25 48.6563 106.052 48.651C105.854 48.6458 105.75 48.7448 105.75 48.9479C105.745 49.1458 105.844 49.25 106.042 49.25C106.24 49.2552 106.344 49.1563 106.344 48.9583ZM105.974 48.9531C105.974 48.901 106 48.875 106.047 48.8802C106.099 48.8802 106.12 48.9063 106.12 48.9531C106.12 49.0052 106.094 49.026 106.047 49.026C105.995 49.026 105.974 49 105.974 48.9531Z" fill="white"/>
<path d="M95.4167 48.6563C95.4167 48.4583 95.3229 48.3542 95.1198 48.3542C94.9219 48.349 94.8229 48.4479 94.8177 48.6458C94.8125 48.8438 94.9115 48.9479 95.1094 48.9531C95.3073 48.9583 95.4114 48.8594 95.4167 48.6563ZM95.0417 48.651C95.0417 48.6042 95.0677 48.5781 95.1146 48.5781C95.1667 48.5781 95.1927 48.6042 95.1875 48.6563C95.1875 48.7031 95.1615 48.7292 95.1146 48.724C95.0625 48.724 95.0417 48.6979 95.0417 48.651Z" fill="white"/>
<path d="M101 49.3229C100.802 49.3177 100.63 49.3854 100.484 49.526C100.344 49.6615 100.271 49.8333 100.266 50.0312C100.26 50.2292 100.328 50.401 100.464 50.5417C100.604 50.6875 100.771 50.7604 100.969 50.7656C101.167 50.7708 101.339 50.7031 101.484 50.5625C101.625 50.4271 101.698 50.2604 101.703 50.0573C101.708 49.8594 101.641 49.6875 101.505 49.5469C101.365 49.401 101.198 49.3281 101 49.3229ZM100.974 50.4479C100.865 50.4427 100.771 50.401 100.698 50.3229C100.62 50.2448 100.583 50.1458 100.583 50.0365C100.589 49.9271 100.625 49.8333 100.708 49.7552C100.786 49.6771 100.88 49.6406 100.995 49.6458C101.104 49.6458 101.198 49.6875 101.271 49.7656C101.349 49.849 101.385 49.9427 101.385 50.0521C101.38 50.1615 101.339 50.2552 101.26 50.3333C101.182 50.4115 101.089 50.4479 100.974 50.4479Z" fill="white"/>
<path d="M147.354 60.0938C146.948 60.0938 146.547 60.0677 146.146 60.0208C145.75 59.9688 145.354 59.8958 144.964 59.7969C144.573 59.6979 144.188 59.5729 143.812 59.4271C143.438 59.2813 143.073 59.1146 142.714 58.9219C142.359 58.7292 142.016 58.5208 141.688 58.2865C141.359 58.0521 141.047 57.8021 140.75 57.526C140.448 57.2552 140.172 56.9688 139.906 56.6615C139.646 56.3542 139.401 56.0313 139.177 55.6927C138.958 55.3594 138.755 55.0104 138.573 54.6458C138.396 54.2865 138.234 53.9167 138.099 53.5365C137.969 53.1563 137.854 52.7656 137.771 52.3698C137.682 51.9792 137.62 51.5781 137.578 51.1771C137.542 50.776 137.531 50.3698 137.542 49.9688C137.552 49.5625 137.589 49.1615 137.646 48.7604C137.708 48.3646 137.792 47.9688 137.901 47.5781C138.01 47.1927 138.141 46.8073 138.297 46.4375C138.453 46.0625 138.63 45.7031 138.833 45.349C139.031 45 139.25 44.6615 139.495 44.3385C139.734 44.0156 139.995 43.7083 140.276 43.4167C140.552 43.125 140.849 42.8542 141.161 42.599C141.474 42.3438 141.802 42.1094 142.141 41.8906C142.484 41.6771 142.839 41.4844 143.203 41.3125C143.568 41.1406 143.943 40.9948 144.323 40.8698C144.708 40.7448 145.099 40.6406 145.495 40.5677C145.891 40.4896 146.286 40.4375 146.688 40.4063C147.094 40.3802 147.495 40.3802 147.896 40.401C148.297 40.4219 148.698 40.4688 149.094 40.5417C149.495 40.6094 149.885 40.7031 150.271 40.8229C150.656 40.9427 151.031 41.0885 151.396 41.25C151.766 41.4167 152.12 41.6042 152.469 41.8125C152.812 42.026 153.141 42.2552 153.458 42.5052C153.776 42.7552 154.073 43.026 154.359 43.3125C154.641 43.599 154.906 43.901 155.151 44.224C155.396 44.5417 155.625 44.875 155.828 45.224C156.031 45.5729 156.219 45.9323 156.38 46.3021C156.542 46.6719 156.677 47.0521 156.792 47.4375C156.906 47.8229 156.995 48.2188 157.062 48.6146C157.13 49.0156 157.172 49.4167 157.188 49.8229C157.203 50.224 157.198 50.625 157.167 51.0313C157.135 51.4323 157.078 51.8333 156.995 52.2292C156.917 52.625 156.807 53.0104 156.682 53.3958C156.552 53.776 156.401 54.151 156.224 54.5156C156.047 54.8802 155.854 55.2344 155.635 55.5729C155.417 55.9115 155.177 56.2344 154.922 56.5469C154.661 56.8594 154.385 57.151 154.094 57.4271C153.797 57.7031 153.49 57.9635 153.161 58.1979C152.839 58.4375 152.5 58.6563 152.146 58.8542C151.797 59.0469 151.432 59.224 151.057 59.375C149.87 59.8542 148.635 60.0938 147.354 60.0938ZM147.354 40.6771C146.964 40.6771 146.578 40.7031 146.193 40.75C145.807 40.7969 145.427 40.8698 145.052 40.9635C144.672 41.0573 144.307 41.1771 143.943 41.3177C143.583 41.4583 143.229 41.6198 142.885 41.8021C142.547 41.9896 142.219 42.1927 141.901 42.4167C141.583 42.6406 141.281 42.8854 140.995 43.1458C140.708 43.4115 140.438 43.6875 140.182 43.9844C139.932 44.276 139.698 44.5885 139.484 44.9115C139.266 45.2344 139.073 45.5729 138.901 45.9219C138.724 46.2656 138.573 46.625 138.443 46.9896C138.313 47.3594 138.208 47.7292 138.125 48.1094C138.042 48.4896 137.979 48.875 137.943 49.2604C137.906 49.651 137.891 50.0365 137.906 50.4271C137.917 50.8125 137.948 51.2031 138.005 51.5885C138.068 51.9688 138.146 52.349 138.25 52.724C138.354 53.099 138.484 53.4688 138.635 53.8229C138.781 54.1823 138.953 54.5313 139.146 54.8698C139.339 55.2083 139.552 55.5313 139.786 55.8438C140.016 56.1563 140.266 56.4531 140.536 56.7344C140.802 57.0156 141.089 57.276 141.391 57.5208C141.693 57.7656 142.005 57.9948 142.333 58.2031C142.661 58.4063 143.005 58.5938 143.354 58.7604C143.708 58.9219 144.068 59.0677 144.438 59.1875C144.807 59.3073 145.182 59.4063 145.562 59.4792C145.943 59.5521 146.328 59.6042 146.714 59.6302C147.099 59.6563 147.49 59.6615 147.875 59.6354C148.26 59.6146 148.646 59.5729 149.031 59.5052C149.411 59.4375 149.786 59.3438 150.156 59.2292C150.531 59.1146 150.891 58.9792 151.245 58.8177C151.599 58.6563 151.943 58.4792 152.276 58.276C152.604 58.0729 152.922 57.8542 153.229 57.6094C153.531 57.3698 153.823 57.1094 154.094 56.8333C154.37 56.5573 154.625 56.2656 154.859 55.9583C155.099 55.651 155.312 55.3281 155.51 54.9948C155.708 54.6563 155.885 54.3125 156.042 53.9583C156.198 53.599 156.328 53.2344 156.438 52.8594C156.547 52.4896 156.635 52.1094 156.698 51.724C156.766 51.3438 156.802 50.9583 156.823 50.5677C156.839 50.1771 156.828 49.7917 156.797 49.401C156.766 49.0156 156.714 48.6302 156.635 48.25C156.557 47.8698 156.453 47.4948 156.333 47.125C156.208 46.7552 156.062 46.3958 155.891 46.0469C155.724 45.6979 155.536 45.3594 155.323 45.0313C155.115 44.7031 154.885 44.3906 154.635 44.0885C154.391 43.7917 154.125 43.5104 153.839 43.2448C153.557 42.9792 153.26 42.7292 152.943 42.5C152.63 42.2708 152.307 42.0625 151.964 41.8698C151.625 41.6823 151.276 41.5156 150.917 41.3698C149.776 40.9063 148.583 40.6771 147.354 40.6771Z" fill="white"/>
<path d="M143.724 51.9531C143.844 52.026 143.964 52.0417 144.099 52.0104C144.229 51.9792 144.333 51.9063 144.401 51.7917C144.474 51.6771 144.495 51.5521 144.464 51.4219C144.432 51.2865 144.359 51.1875 144.245 51.1146C144.125 51.0417 144.005 51.0208 143.87 51.0521C143.74 51.0833 143.635 51.1563 143.568 51.276C143.495 51.3906 143.474 51.5156 143.505 51.6458C143.536 51.7813 143.609 51.8802 143.724 51.9531ZM144.125 51.3073C144.276 51.401 144.302 51.5208 144.208 51.6719C144.12 51.8229 143.995 51.8542 143.844 51.7604C143.693 51.6667 143.667 51.5469 143.76 51.3958C143.849 51.2448 143.974 51.2135 144.125 51.3073Z" fill="white"/>
<path d="M142.823 43.8229C142.922 43.8854 143.036 43.901 143.151 43.875C143.271 43.849 143.365 43.7812 143.427 43.6771C143.49 43.5729 143.51 43.4635 143.479 43.3438C143.453 43.224 143.385 43.1302 143.286 43.0677C143.182 43.0052 143.068 42.9844 142.953 43.0156C142.833 43.0417 142.74 43.1094 142.677 43.2135C142.615 43.3177 142.594 43.4271 142.625 43.5469C142.651 43.6667 142.719 43.7552 142.823 43.8229Z" fill="white"/>
<path d="M147.276 57.5573C147.359 57.6094 147.427 57.5938 147.474 57.5104C147.526 57.4271 147.51 57.3646 147.427 57.3125C147.344 57.2604 147.281 57.2761 147.229 57.3594C147.177 57.4427 147.193 57.5052 147.276 57.5573Z" fill="white"/>
<path d="M147.568 41.7344C147.646 41.7865 147.714 41.7708 147.766 41.6875C147.818 41.6042 147.802 41.5417 147.719 41.4896C147.635 41.4375 147.568 41.4531 147.521 41.5365C147.469 41.6198 147.484 41.6823 147.568 41.7344Z" fill="white"/>
<path d="M141.37 55.5625C141.547 55.6719 141.693 55.6406 141.802 55.4583C141.917 55.2812 141.88 55.1354 141.703 55.026C141.521 54.9115 141.38 54.9479 141.266 55.125C141.156 55.3073 141.193 55.4531 141.37 55.5625ZM141.583 55.2187C141.635 55.25 141.646 55.2917 141.615 55.3385C141.583 55.3906 141.542 55.401 141.49 55.3698C141.438 55.3385 141.427 55.2969 141.458 55.2448C141.49 55.1927 141.531 55.1875 141.583 55.2187Z" fill="white"/>
<path d="M139.161 48.8698C139.339 48.9792 139.484 48.9479 139.594 48.7656C139.703 48.5885 139.672 48.4427 139.495 48.3333C139.312 48.224 139.167 48.2552 139.057 48.4323C138.948 48.6146 138.984 48.7604 139.161 48.8698ZM139.375 48.526C139.427 48.5573 139.432 48.599 139.401 48.6458C139.37 48.6979 139.328 48.7083 139.281 48.6771C139.229 48.6458 139.219 48.6042 139.25 48.5521C139.281 48.5052 139.323 48.4948 139.375 48.526Z" fill="white"/>
<path d="M145.625 46.875C145.734 46.7031 145.698 46.5677 145.531 46.4583C145.359 46.3542 145.224 46.3906 145.12 46.5573C145.016 46.7292 145.047 46.8646 145.214 46.9688C145.385 47.0781 145.521 47.0417 145.625 46.875ZM145.312 46.6771C145.339 46.6354 145.37 46.625 145.411 46.6511C145.453 46.6771 145.464 46.7136 145.438 46.7552C145.411 46.7969 145.375 46.8021 145.333 46.7813C145.292 46.7552 145.286 46.7188 145.312 46.6771Z" fill="white"/>
<path d="M151.391 43.625C151.302 43.5677 151.208 43.5573 151.109 43.5781C151.01 43.6042 150.938 43.6562 150.88 43.7448C150.828 43.8281 150.812 43.9219 150.839 44.0208C150.859 44.1198 150.917 44.1979 151 44.25C151.089 44.3021 151.182 44.3177 151.281 44.2969C151.38 44.2708 151.453 44.2188 151.51 44.1302C151.562 44.0469 151.578 43.9531 151.552 43.8542C151.531 43.7552 151.474 43.6771 151.391 43.625Z" fill="white"/>
<path d="M150.146 50.1354C150.104 50.1094 150.068 50.1146 150.042 50.1615C150.016 50.2031 150.026 50.2344 150.068 50.2604C150.109 50.2865 150.141 50.2761 150.167 50.2344C150.193 50.1927 150.188 50.1615 150.146 50.1354Z" fill="white"/>
<path d="M154.328 52.2865C154.198 52.2083 154.089 52.2292 154.01 52.3646C153.927 52.4948 153.953 52.599 154.083 52.6823C154.214 52.7656 154.323 52.7396 154.401 52.6094C154.484 52.474 154.458 52.3698 154.328 52.2865Z" fill="white"/>
<path d="M152.625 42.0521C152.104 41.7135 151.562 41.4271 150.99 41.1979C150.078 42.5208 149.385 43.9479 148.911 45.4844C148.438 47.0208 148.198 48.5885 148.198 50.1979C148.198 51.8073 148.438 53.375 148.911 54.9115C149.385 56.4479 150.078 57.875 150.99 59.1979C151.807 58.8646 152.568 58.4271 153.271 57.8854C153.974 57.3438 154.589 56.7135 155.12 56.0052C155.646 55.2917 156.073 54.5208 156.391 53.6927C156.708 52.8646 156.911 52.0052 156.995 51.1198C157.078 50.2396 157.042 49.3594 156.885 48.4844C156.729 47.6094 156.458 46.776 156.073 45.974C155.687 45.1719 155.203 44.4427 154.615 43.776C154.031 43.1094 153.365 42.5313 152.625 42.0521ZM150.359 50.3542C150.255 50.526 150.12 50.5573 149.948 50.4531C149.781 50.349 149.745 50.2083 149.849 50.0417C149.958 49.8698 150.094 49.8385 150.26 49.9427C150.432 50.0469 150.464 50.1875 150.359 50.3542ZM150.833 44.5208C150.672 44.4219 150.568 44.2813 150.526 44.0938C150.484 43.9115 150.51 43.7396 150.609 43.5729C150.708 43.4115 150.854 43.3125 151.036 43.2656C151.224 43.224 151.396 43.25 151.557 43.349C151.719 43.4531 151.818 43.5938 151.865 43.7813C151.906 43.9635 151.88 44.1354 151.781 44.2969C151.682 44.4583 151.536 44.5625 151.354 44.6094C151.167 44.651 150.995 44.625 150.833 44.5208ZM151.917 56.3281C151.823 56.4844 151.698 56.5104 151.542 56.4167C151.391 56.3229 151.359 56.1979 151.453 56.0417C151.552 55.8854 151.677 55.8594 151.828 55.9531C151.984 56.0469 152.016 56.1719 151.917 56.3281ZM154.781 52.8438C154.682 53 154.542 53.1042 154.359 53.1458C154.177 53.1875 154.01 53.1615 153.849 53.0625C153.693 52.9635 153.589 52.8229 153.547 52.6406C153.505 52.4583 153.531 52.2865 153.63 52.1302C153.729 51.9688 153.87 51.8646 154.052 51.8229C154.234 51.7813 154.401 51.8073 154.562 51.9063C154.724 52.0052 154.823 52.1458 154.865 52.3281C154.906 52.5104 154.88 52.6823 154.781 52.8438ZM154.536 46.9115C154.453 46.8646 154.438 46.7969 154.49 46.7135C154.542 46.6302 154.604 46.6146 154.687 46.6667C154.771 46.7188 154.786 46.7813 154.734 46.8646C154.682 46.9479 154.62 46.9635 154.536 46.9115Z" fill="white"/>
<path d="M72.901 60.0938C72.25 60.0938 71.6094 60.0313 70.974 59.9063C70.3385 59.7813 69.7188 59.5886 69.1198 59.3438C68.5208 59.0938 67.9531 58.7865 67.4115 58.4271C66.875 58.0677 66.375 57.6563 65.9167 57.1979C65.4583 56.7396 65.0469 56.2396 64.6875 55.6979C64.3281 55.1563 64.026 54.5833 63.776 53.9844C63.5313 53.3854 63.3438 52.7656 63.2135 52.1302C63.0885 51.4896 63.026 50.849 63.026 50.1979C63.026 49.5469 63.0885 48.9063 63.2135 48.2656C63.3438 47.6302 63.5313 47.0104 63.776 46.4115C64.026 45.8073 64.3281 45.2396 64.6875 44.6979C65.0469 44.1563 65.4583 43.6563 65.9167 43.1979C66.375 42.7396 66.875 42.3281 67.4115 41.9688C67.9531 41.6094 68.5208 41.3021 69.1198 41.0521C69.7188 40.8021 70.3385 40.6146 70.974 40.4896C71.6094 40.3646 72.25 40.3021 72.901 40.3021C73.5469 40.3021 74.1875 40.3646 74.8229 40.4896C75.4583 40.6146 76.0781 40.8021 76.6771 41.0521C77.276 41.3021 77.8438 41.6094 78.3854 41.9688C78.9219 42.3281 79.4219 42.7396 79.8802 43.1979C80.3385 43.6563 80.75 44.1563 81.1094 44.6979C81.4688 45.2396 81.7708 45.8073 82.0208 46.4115C82.2708 47.0104 82.4583 47.6302 82.5833 48.2656C82.7083 48.9063 82.7708 49.5469 82.7708 50.1979C82.7708 50.849 82.7083 51.4896 82.5833 52.1302C82.4583 52.7656 82.2708 53.3854 82.0208 53.9844C81.7708 54.5886 81.4688 55.1563 81.1094 55.6979C80.75 56.2396 80.3385 56.7396 79.8802 57.1979C79.4219 57.6563 78.9219 58.0677 78.3854 58.4271C77.8438 58.7917 77.276 59.0938 76.6771 59.3438C76.0781 59.5938 75.4583 59.7813 74.8229 59.9063C74.1875 60.0313 73.5469 60.0938 72.901 60.0938ZM72.901 40.6771C72.276 40.6771 71.6563 40.7344 71.0469 40.8594C70.4323 40.9792 69.8385 41.1615 69.2656 41.4011C68.6875 41.6406 68.1406 41.9323 67.6198 42.2813C67.1042 42.6302 66.625 43.0208 66.1823 43.4636C65.7396 43.9063 65.349 44.3854 65 44.9063C64.6563 45.4271 64.3594 45.974 64.125 46.5521C63.8854 47.1302 63.7031 47.7292 63.5833 48.3386C63.4635 48.9531 63.401 49.5729 63.401 50.1979C63.401 50.8229 63.4635 51.4427 63.5833 52.0573C63.7031 52.6667 63.8854 53.2656 64.125 53.8438C64.3594 54.4219 64.6563 54.9688 65 55.4896C65.349 56.0052 65.7396 56.4896 66.1823 56.9323C66.625 57.375 67.1042 57.7656 67.6198 58.1146C68.1406 58.4636 68.6875 58.7552 69.2656 58.9948C69.8385 59.2344 70.4323 59.4167 71.0469 59.5365C71.6563 59.6563 72.276 59.7188 72.901 59.7188C73.5208 59.7188 74.1406 59.6563 74.75 59.5365C75.3646 59.4167 75.9583 59.2344 76.5313 58.9948C77.1094 58.7552 77.6563 58.4636 78.1771 58.1146C78.6927 57.7656 79.1719 57.375 79.6146 56.9323C80.0573 56.4896 80.4479 56.0052 80.7969 55.4896C81.1406 54.9688 81.4375 54.4219 81.6719 53.8438C81.9115 53.2656 82.0938 52.6667 82.2135 52.0573C82.3385 51.4427 82.3958 50.8229 82.3958 50.1979C82.3958 49.5729 82.3385 48.9531 82.2135 48.3386C82.0938 47.7292 81.9115 47.1302 81.6719 46.5521C81.4375 45.974 81.1406 45.4271 80.7969 44.9063C80.4479 44.3854 80.0573 43.9063 79.6146 43.4636C79.1719 43.0208 78.6927 42.625 78.1771 42.2813C77.6563 41.9323 77.1094 41.6406 76.5313 41.4011C75.9583 41.1615 75.3646 40.9792 74.75 40.8594C74.1406 40.7344 73.5208 40.6771 72.901 40.6771Z" fill="white"/>
<path d="M74.7917 42.599C74.9271 42.599 75.0417 42.5521 75.1406 42.4583C75.2396 42.3646 75.2865 42.25 75.2917 42.1146C75.2917 41.9792 75.25 41.8594 75.1563 41.7656C75.0625 41.6667 74.9479 41.6146 74.8125 41.6146C74.6771 41.6094 74.5573 41.6563 74.4583 41.75C74.3594 41.8438 74.3125 41.9583 74.3073 42.0938C74.3073 42.2292 74.3542 42.349 74.4479 42.4479C74.5417 42.5417 74.6563 42.5938 74.7917 42.599ZM74.8073 41.8385C74.9844 41.8438 75.0677 41.9323 75.0677 42.1094C75.0625 42.2865 74.974 42.375 74.7969 42.3698C74.6198 42.3698 74.5312 42.276 74.5365 42.099C74.5365 41.9219 74.6302 41.8333 74.8073 41.8385Z" fill="white"/>
<path d="M78.2865 44.2448C78.3854 44.2448 78.4323 44.1979 78.4375 44.1042C78.4375 44.0052 78.3906 43.9583 78.2917 43.9531C78.1979 43.9531 78.1458 44 78.1458 44.099C78.1458 44.1927 78.1927 44.2448 78.2865 44.2448Z" fill="white"/>
<path d="M77.7448 52.6615C77.8385 52.6667 77.8906 52.6198 77.8906 52.5208C77.8958 52.4271 77.849 52.375 77.75 52.375C77.6562 52.3698 77.6042 52.4167 77.6042 52.5156C77.599 52.6146 77.6458 52.6615 77.7448 52.6615Z" fill="white"/>
<path d="M79.7604 54.8854C79.8958 54.8906 80.0208 54.8438 80.1198 54.7448C80.224 54.6458 80.276 54.5261 80.276 54.3854C80.2812 54.2448 80.2344 54.125 80.1354 54.0261C80.0365 53.9219 79.9167 53.8698 79.776 53.8698C79.6406 53.8646 79.5156 53.9115 79.4167 54.0104C79.3125 54.1094 79.2604 54.224 79.2604 54.3646C79.2552 54.5052 79.3021 54.6302 79.401 54.7292C79.5 54.8333 79.6198 54.8854 79.7604 54.8854Z" fill="white"/>
<path d="M76.2188 57.75C76.4323 57.7552 76.5365 57.6511 76.5417 57.4427C76.5469 57.2292 76.4427 57.125 76.2344 57.1198C76.0208 57.1146 75.9167 57.2188 75.9115 57.4271C75.9062 57.6406 76.0104 57.7448 76.2188 57.75ZM76.2292 57.3438C76.2865 57.3438 76.3177 57.375 76.3177 57.4375C76.3125 57.4948 76.2865 57.5261 76.224 57.5261C76.1667 57.5261 76.1354 57.4948 76.1354 57.4323C76.1354 57.375 76.1667 57.3438 76.2292 57.3438Z" fill="white"/>
<path d="M81.6562 50.0781C81.6562 49.8802 81.5625 49.7813 81.3594 49.776C81.1614 49.7708 81.0625 49.8698 81.0573 50.0677C81.0521 50.2708 81.151 50.3698 81.3489 50.375C81.5469 50.3802 81.651 50.2813 81.6562 50.0781ZM81.2812 50.0729C81.2812 50.026 81.3073 50 81.3594 50C81.4062 50 81.4323 50.026 81.4271 50.0781C81.4271 50.125 81.401 50.151 81.3542 50.1458C81.3073 50.1458 81.2812 50.1198 81.2812 50.0729Z" fill="white"/>
<path d="M78.2135 47.6875C78.0885 47.6823 77.9792 47.724 77.8854 47.8125C77.7969 47.9011 77.75 48.0052 77.75 48.1354C77.7448 48.2604 77.7865 48.3698 77.875 48.4583C77.9635 48.5521 78.0677 48.599 78.1927 48.599C78.3229 48.6042 78.4323 48.5625 78.5208 48.474C78.6094 48.3854 78.6563 48.2813 78.6615 48.151C78.6615 48.026 78.6198 47.9167 78.5365 47.8281C78.4479 47.7344 78.3385 47.6875 78.2135 47.6875ZM78.1979 48.375C78.0469 48.3698 77.9688 48.2917 77.974 48.1406C77.974 47.9844 78.0573 47.9063 78.2083 47.9115C78.3646 47.9167 78.4375 47.9948 78.4375 48.1458C78.4323 48.3021 78.3542 48.3802 78.1979 48.375Z" fill="white"/>
<path d="M73.2344 51.7604C73.4115 51.7656 73.5 51.8542 73.4948 52.0312C73.4896 52.2083 73.401 52.2969 73.224 52.2917C73.0469 52.2865 72.9583 52.1979 72.9635 52.0208C72.9687 51.8437 73.0573 51.7552 73.2344 51.7604Z" fill="white"/>
<path d="M71.026 57.6615C71.0833 57.6615 71.1146 57.6927 71.1146 57.7552C71.1094 57.8125 71.0781 57.8438 71.0208 57.8386C70.9635 57.8386 70.9323 57.8073 70.9323 57.75C70.9323 57.6875 70.9635 57.6615 71.026 57.6615Z" fill="white"/>
<path d="M63.2135 50.1979C63.2135 51.2292 63.3698 52.2344 63.6927 53.2135C64.0104 54.1979 64.474 55.1042 65.0833 55.9323C65.6927 56.7656 66.4115 57.4844 67.25 58.0833C68.0833 58.6875 68.9896 59.1458 69.974 59.4583C70.9531 59.1458 71.8594 58.6875 72.6979 58.0833C73.5313 57.4844 74.2552 56.7656 74.8594 55.9323C75.4688 55.1042 75.9323 54.1979 76.25 53.2135C76.5729 52.2344 76.7292 51.2292 76.7292 50.1979C76.7292 49.1667 76.5729 48.1615 76.25 47.1823C75.9323 46.1979 75.4688 45.2917 74.8594 44.4635C74.2552 43.6302 73.5313 42.9115 72.6979 42.3073C71.8594 41.7083 70.9531 41.25 69.974 40.9375C68.9896 41.25 68.0833 41.7083 67.25 42.3073C66.4115 42.9115 65.6927 43.6302 65.0833 44.4635C64.474 45.2917 64.0104 46.1979 63.6927 47.1823C63.3698 48.1615 63.2135 49.1667 63.2135 50.1979ZM72.7396 52.0156C72.7396 51.8802 72.7917 51.7656 72.8906 51.6719C72.9844 51.5781 73.1042 51.5312 73.2396 51.5312C73.375 51.5365 73.4896 51.5885 73.5833 51.6875C73.6771 51.7812 73.724 51.901 73.7188 52.0365C73.7188 52.1719 73.6667 52.2865 73.5677 52.3802C73.474 52.474 73.3542 52.5208 73.2188 52.5208C73.0833 52.5156 72.9688 52.4635 72.875 52.3646C72.7813 52.2708 72.7344 52.151 72.7396 52.0156ZM72.4115 44.2448C72.4115 44.1458 72.4635 44.099 72.5573 44.099C72.6563 44.1042 72.7031 44.151 72.7031 44.25C72.6979 44.3438 72.651 44.3906 72.5521 44.3906C72.4583 44.3906 72.4115 44.3385 72.4115 44.2448ZM70.7083 57.7448C70.7135 57.5365 70.8177 57.4323 71.0313 57.4375C71.2396 57.4375 71.3438 57.5469 71.3385 57.7552C71.3333 57.9688 71.224 58.0729 71.0156 58.0677C70.8073 58.0625 70.7031 57.9531 70.7083 57.7448ZM70.7083 47.8646C70.7135 47.6823 70.8021 47.5937 70.9844 47.599C71.1667 47.599 71.2552 47.6927 71.25 47.875C71.25 48.0573 71.1562 48.1458 70.974 48.1406C70.7917 48.1406 70.7031 48.0469 70.7083 47.8646ZM66.8385 45.0625C66.8333 45.1562 66.7865 45.2031 66.6875 45.2031C66.5938 45.2031 66.5469 45.151 66.5469 45.0521C66.5521 44.9583 66.599 44.9115 66.6979 44.9115C66.7917 44.9167 66.8385 44.9635 66.8385 45.0625ZM66.5365 52.2604C66.5417 52.0625 66.6458 51.9635 66.8438 51.9688C67.0417 51.9688 67.1406 52.0729 67.1354 52.2708C67.1302 52.474 67.0312 52.5677 66.8333 52.5677C66.6302 52.5625 66.5365 52.4583 66.5365 52.2604Z" fill="white"/>
<path d="M66.8385 52.1927C66.8906 52.1927 66.9115 52.2188 66.9115 52.2656C66.9115 52.3177 66.8854 52.3386 66.8385 52.3386C66.7865 52.3386 66.7604 52.3125 66.7656 52.2656C66.7656 52.2136 66.7917 52.1927 66.8385 52.1927Z" fill="white"/>
<path d="M49.8177 60.0938C49.1719 60.0938 48.526 60.0313 47.8906 59.9063C47.2552 59.7761 46.6406 59.5886 46.0417 59.3438C45.4427 59.0938 44.8698 58.7865 44.3333 58.4271C43.7917 58.0677 43.2969 57.6563 42.8385 57.1979C42.375 56.7396 41.9687 56.2396 41.6094 55.6979C41.25 55.1563 40.9427 54.5833 40.6979 53.9844C40.4479 53.3854 40.2604 52.7656 40.1354 52.1302C40.0052 51.4896 39.9427 50.849 39.9427 50.1979C39.9427 49.5469 40.0052 48.9063 40.1354 48.2656C40.2604 47.6302 40.4479 47.0104 40.6979 46.4115C40.9427 45.8073 41.25 45.2396 41.6094 44.6979C41.9687 44.1563 42.375 43.6563 42.8385 43.1979C43.2969 42.7396 43.7917 42.3281 44.3333 41.9688C44.8698 41.6094 45.4427 41.3021 46.0417 41.0521C46.6406 40.8021 47.2552 40.6146 47.8906 40.4896C48.526 40.3646 49.1667 40.3021 49.8177 40.3021C50.4635 40.3021 51.1094 40.3646 51.7448 40.4896C52.3802 40.6146 52.9948 40.8021 53.5937 41.0521C54.1927 41.3021 54.7656 41.6094 55.3021 41.9688C55.8437 42.3281 56.3385 42.7396 56.7969 43.1979C57.2552 43.6563 57.6667 44.1563 58.026 44.6979C58.3854 45.2396 58.6927 45.8073 58.9375 46.4115C59.1875 47.0104 59.375 47.6302 59.5 48.2656C59.6302 48.9063 59.6927 49.5469 59.6927 50.1979C59.6927 50.849 59.6354 51.4948 59.5104 52.1302C59.3854 52.7708 59.2031 53.3906 58.9531 53.9948C58.7083 54.599 58.4062 55.1667 58.0469 55.7083C57.6875 56.2552 57.276 56.7552 56.8177 57.2136C56.3594 57.6771 55.8594 58.0833 55.3177 58.4479C54.776 58.8073 54.2083 59.1094 53.6042 59.3594C53.0052 59.6042 52.3854 59.7917 51.75 59.9167C51.1094 60.0417 50.4687 60.099 49.8177 60.0938ZM49.8177 40.6771C49.1927 40.6771 48.5781 40.7344 47.9635 40.8594C47.3542 40.9792 46.7604 41.1615 46.1823 41.4011C45.6042 41.6406 45.0573 41.9323 44.5417 42.2813C44.0208 42.6302 43.5417 43.0208 43.099 43.4636C42.6615 43.9063 42.2656 44.3854 41.9219 44.9063C41.5729 45.4271 41.2812 45.974 41.0417 46.5521C40.8021 47.1302 40.625 47.7292 40.5 48.3386C40.3802 48.9531 40.3177 49.5729 40.3177 50.1979C40.3177 50.8229 40.3802 51.4427 40.5 52.0573C40.625 52.6667 40.8021 53.2656 41.0417 53.8438C41.2812 54.4219 41.5729 54.9688 41.9219 55.4896C42.2656 56.0052 42.6615 56.4896 43.099 56.9323C43.5417 57.375 44.0208 57.7656 44.5417 58.1146C45.0573 58.4636 45.6042 58.7552 46.1823 58.9948C46.7604 59.2344 47.3542 59.4167 47.9635 59.5365C48.5781 59.6563 49.1927 59.7188 49.8177 59.7188C50.4427 59.7188 51.0573 59.6563 51.6719 59.5365C52.2812 59.4167 52.875 59.2344 53.4531 58.9948C54.026 58.7552 54.5781 58.4636 55.0937 58.1146C55.6146 57.7656 56.0937 57.375 56.5365 56.9323C56.974 56.4896 57.3698 56.0052 57.7135 55.4896C58.0625 54.9688 58.3542 54.4219 58.5937 53.8438C58.8333 53.2656 59.0104 52.6667 59.1354 52.0573C59.2552 51.4427 59.3177 50.8229 59.3177 50.1979C59.3177 49.5729 59.2604 48.9531 59.1406 48.3386C59.026 47.7188 58.8437 47.125 58.6094 46.5469C58.3698 45.9636 58.0781 45.4167 57.7344 44.8958C57.3854 44.375 56.9948 43.8906 56.5521 43.4479C56.1094 43.0052 55.6302 42.6094 55.1094 42.2604C54.5885 41.9167 54.0417 41.625 53.4635 41.3854C52.8854 41.1458 52.2865 40.9688 51.6771 40.849C51.0625 40.7292 50.4427 40.6719 49.8177 40.6771Z" fill="white"/>
<path d="M53.6042 51.276C53.5313 51.1563 53.4323 51.0833 53.2969 51.0521C53.1667 51.0208 53.0417 51.0417 52.9271 51.1146C52.8125 51.1875 52.7396 51.2865 52.7083 51.4219C52.6771 51.5521 52.6979 51.6771 52.7656 51.7917C52.8386 51.9063 52.9427 51.9792 53.0729 52.0104C53.2031 52.0417 53.3281 52.026 53.4427 51.9531C53.5573 51.8802 53.6302 51.7813 53.6615 51.6458C53.6927 51.5156 53.6719 51.3906 53.6042 51.276ZM53.4115 51.3958C53.5052 51.5469 53.474 51.6667 53.3229 51.7604C53.1719 51.8542 53.0521 51.8229 52.9583 51.6719C52.8646 51.5208 52.8958 51.401 53.0469 51.3073C53.1979 51.2135 53.3177 51.2448 53.4115 51.3958Z" fill="white"/>
<path d="M54.349 43.8229C54.2448 43.8854 54.1354 43.901 54.0156 43.875C53.8958 43.849 53.8073 43.7812 53.7448 43.6771C53.6771 43.5729 53.6615 43.4635 53.6875 43.3438C53.7188 43.224 53.7813 43.1302 53.8854 43.0677C53.9896 43.0052 54.099 42.9844 54.2188 43.0156C54.3385 43.0417 54.4271 43.1094 54.4948 43.2135C54.5573 43.3177 54.5729 43.4271 54.5469 43.5469C54.5208 43.6667 54.4531 43.7552 54.349 43.8229Z" fill="white"/>
<path d="M49.8958 57.5573C49.8125 57.6094 49.7448 57.5938 49.6927 57.5104C49.6458 57.4271 49.6615 57.3646 49.7396 57.3125C49.8229 57.2604 49.8906 57.2761 49.9427 57.3594C49.9896 57.4427 49.974 57.5052 49.8958 57.5573Z" fill="white"/>
<path d="M49.6042 41.7344C49.5208 41.7865 49.4531 41.7708 49.4063 41.6875C49.3542 41.6042 49.3698 41.5417 49.4531 41.4896C49.5313 41.4375 49.599 41.4531 49.651 41.5365C49.7031 41.6198 49.6875 41.6823 49.6042 41.7344Z" fill="white"/>
<path d="M55.901 55.125C55.7917 54.9479 55.6458 54.9115 55.4687 55.026C55.2917 55.1354 55.2552 55.2812 55.3646 55.4583C55.474 55.6406 55.6198 55.6719 55.7969 55.5625C55.9792 55.4531 56.0104 55.3073 55.901 55.125ZM55.7083 55.2448C55.7396 55.2969 55.7292 55.3385 55.6823 55.3698C55.6302 55.401 55.5885 55.3906 55.5573 55.3385C55.526 55.2917 55.5365 55.25 55.5885 55.2187C55.6354 55.1875 55.6771 55.1927 55.7083 55.2448Z" fill="white"/>
<path d="M58.1094 48.4323C58 48.2552 57.8542 48.224 57.6771 48.3333C57.5 48.4427 57.4635 48.5885 57.5729 48.7656C57.6875 48.9479 57.8281 48.9792 58.0104 48.8698C58.1875 48.7604 58.224 48.6146 58.1094 48.4323ZM57.9219 48.5521C57.9531 48.6042 57.9427 48.6458 57.8906 48.6771C57.8385 48.7083 57.7969 48.6979 57.7656 48.6458C57.7344 48.599 57.7448 48.5573 57.7969 48.526C57.849 48.4948 57.8854 48.5052 57.9219 48.5521Z" fill="white"/>
<path d="M51.9531 46.9688C52.125 46.8646 52.1563 46.7292 52.0521 46.5573C51.9479 46.3906 51.8073 46.3542 51.6406 46.4583C51.4688 46.5677 51.4375 46.7031 51.5417 46.875C51.6458 47.0417 51.7865 47.0781 51.9531 46.9688ZM51.8333 46.7813C51.7917 46.8021 51.7604 46.7969 51.7344 46.7552C51.7083 46.7136 51.7188 46.6771 51.7604 46.6511C51.8021 46.625 51.8333 46.6354 51.8594 46.6771C51.8854 46.7188 51.875 46.7552 51.8333 46.7813Z" fill="white"/>
<path d="M45.7448 43.5677C45.849 43.5052 45.9583 43.4844 46.0729 43.5156C46.1927 43.5417 46.2813 43.6042 46.3438 43.7083C46.4063 43.8125 46.4219 43.9219 46.3958 44.0365C46.3698 44.1562 46.3021 44.2448 46.2031 44.3073C46.099 44.3698 45.9896 44.3906 45.875 44.3594C45.7604 44.3333 45.6667 44.2656 45.6042 44.1667C45.5417 44.0625 45.526 43.9531 45.5521 43.8385C45.5781 43.7187 45.6458 43.6302 45.7448 43.5677Z" fill="white"/>
<path d="M47.026 50.1354C47.0677 50.1094 47.0989 50.1146 47.125 50.1615C47.151 50.2031 47.1458 50.2344 47.1042 50.2604C47.0625 50.2865 47.026 50.2761 47 50.2344C46.9739 50.1927 46.9844 50.1615 47.026 50.1354Z" fill="white"/>
<path d="M42.8438 52.2865C42.974 52.2083 43.0781 52.2292 43.1615 52.3646C43.2396 52.4948 43.2187 52.599 43.0833 52.6823C42.9531 52.7656 42.849 52.7396 42.7656 52.6094C42.6875 52.474 42.7135 52.3698 42.8438 52.2865Z" fill="white"/>
<path d="M40.1302 50.1979C40.1302 51.1667 40.2708 52.1094 40.5573 53.0365C40.8385 53.9583 41.2448 54.8229 41.7865 55.625C42.3229 56.4271 42.9687 57.1302 43.7187 57.7396C44.4687 58.349 45.2865 58.8385 46.1823 59.1979C47.0885 57.875 47.7812 56.4479 48.2552 54.9115C48.7344 53.375 48.9687 51.8073 48.9687 50.1979C48.9687 48.5885 48.7344 47.0208 48.2552 45.4844C47.7812 43.9479 47.0885 42.5208 46.1823 41.1979C45.2865 41.5573 44.4687 42.0469 43.7187 42.6563C42.9687 43.2656 42.3229 43.9688 41.7865 44.7708C41.2448 45.5729 40.8385 46.4375 40.5573 47.3594C40.2708 48.2865 40.1302 49.2292 40.1302 50.1979ZM46.9062 49.9427C47.0781 49.8385 47.2135 49.8698 47.3177 50.0417C47.4219 50.2083 47.3906 50.349 47.2187 50.4531C47.0521 50.5573 46.9167 50.526 46.8073 50.3542C46.7031 50.1875 46.7396 50.0469 46.9062 49.9427ZM45.2708 44.375C45.151 44.1771 45.1146 43.9688 45.1667 43.7448C45.2187 43.5208 45.3437 43.349 45.5365 43.2292C45.7344 43.1094 45.9427 43.0729 46.1667 43.1302C46.3906 43.1823 46.5625 43.3073 46.6823 43.5C46.8021 43.6979 46.8333 43.9063 46.7812 44.1302C46.7292 44.3542 46.6042 44.526 46.4115 44.6458C46.2135 44.7656 46.0052 44.7969 45.7865 44.7448C45.5625 44.6927 45.3906 44.5677 45.2708 44.375ZM45.3385 55.9531C45.4948 55.8594 45.6198 55.8854 45.7135 56.0417C45.8125 56.1979 45.7812 56.3229 45.625 56.4167C45.474 56.5104 45.349 56.4844 45.25 56.3281C45.1562 56.1719 45.1875 56.0469 45.3385 55.9531ZM42.6406 51.9635C42.7865 51.875 42.9375 51.849 43.1042 51.8854C43.2708 51.9271 43.3958 52.0156 43.4844 52.1615C43.5729 52.3073 43.599 52.4635 43.5573 52.625C43.5208 52.7917 43.4271 52.9167 43.2865 53.0052C43.1406 53.0938 42.9896 53.1198 42.8229 53.0833C42.6562 53.0417 42.5312 52.9531 42.4427 52.8073C42.3542 52.6615 42.3281 52.5104 42.3698 52.3438C42.4062 52.1771 42.5 52.0521 42.6406 51.9635ZM42.4323 46.8646C42.3854 46.7813 42.401 46.7188 42.4792 46.6667C42.5625 46.6146 42.6302 46.6302 42.6823 46.7135C42.7344 46.7969 42.7187 46.8646 42.6354 46.9115C42.5521 46.9635 42.4844 46.9479 42.4323 46.8646Z" fill="white"/>
<path d="M189.896 100.76C186.974 100.76 184.063 100.214 182.255 99.1042C181.005 98.3333 180.401 97.3385 180.516 96.224C181.62 85.4583 180.807 76.6667 178.333 72.7083C174.589 66.7031 173.677 60.3958 175.38 52.2604C176.078 48.9167 176.672 45.3958 177.25 41.1719C177.328 40.5937 177.406 40.0208 177.479 39.4635C177.599 38.5521 177.714 37.6667 177.818 36.8177L177.943 35.8542C178.198 33.8594 178.448 31.9323 178.724 30.3073C178.786 29.9271 178.849 29.5677 178.917 29.2187C179.427 26.5833 180.01 25.0989 180.807 24.401C180.99 24.2396 181.198 24.1146 181.427 24.0312C181.609 23.9687 181.797 23.9375 181.99 23.9323C182.484 23.9323 182.943 24.0573 183.37 24.3125C183.792 24.5677 184.115 24.9167 184.344 25.3542L184.349 25.3646C185.703 27.5677 186.042 32.276 185.411 40.1667L185.359 40.7708C185.328 41.1562 185.302 41.526 185.276 41.8854C185.203 43.0885 185.188 44.1562 185.214 45.0989C186.177 44.6823 188.328 43.7031 188.932 42.6146C189.802 41.0573 190.24 37.7396 190.448 36.1406C190.484 35.8542 190.516 35.6198 190.542 35.4583C190.583 35.2083 190.62 34.9427 190.656 34.6667C190.74 33.9948 190.828 33.2083 190.906 32.3281C190.943 31.8906 190.979 31.4427 191.01 30.9948C191.062 30.3229 191.104 29.6458 191.141 29C191.229 27.3646 191.271 25.8802 191.245 25.125C191.234 24.7448 191.188 24.2083 191.089 23.4375C191.036 23.026 190.979 22.6094 190.932 22.2292L190.844 21.5833C190.656 20.151 190.328 18.1458 189.979 16.026C189.177 11.1198 188.349 6.05207 188.667 4.82812C189.141 2.97916 189.708 1.21874 190.625 0.869783C190.984 0.744783 191.313 0.796865 191.609 1.03124C192.51 1.64062 194.057 7.65624 196.307 16.7604C197.141 20.1302 197.932 23.3125 198.557 25.5312C198.823 26.6875 198.958 27.8646 198.964 29.0521C198.984 29.6771 199 30.349 199.005 31.0521C199.016 31.776 199.021 32.5312 199.021 33.3125C199.026 34.0729 199.026 34.8542 199.036 35.6458C199.016 38.2864 199.188 40.9114 199.542 43.5312C199.849 45.4323 198.922 49.9219 197.844 55.1146C196.766 60.3281 195.547 66.2396 195.156 71.3177C194.932 74.2292 195.557 76.1562 196.104 77.8594C196.516 79.1406 196.875 80.25 196.792 81.5156C196.672 83.4062 199.568 95.6719 199.599 95.7917C199.755 97.0417 199.156 98.1302 197.859 98.9687C196.021 100.161 192.953 100.76 189.896 100.76ZM182.026 24.3073C182.016 24.3073 182.005 24.3073 181.995 24.3073C181.844 24.3125 181.698 24.3385 181.552 24.3854C181.37 24.4531 181.203 24.5521 181.057 24.6823C180.333 25.3177 179.771 26.7812 179.286 29.2917C179.219 29.6354 179.156 29.9948 179.094 30.3698C178.818 31.9896 178.568 33.9114 178.313 35.901L178.193 36.8646C178.083 37.7135 177.969 38.5989 177.849 39.5104C177.776 40.0729 177.698 40.6406 177.62 41.2239C177.042 45.4531 176.448 48.9844 175.745 52.3385C174.068 60.3698 174.964 66.5937 178.651 72.5104C181.167 76.5365 182 85.4167 180.891 96.2604C180.792 97.2344 181.318 98.0833 182.453 98.7812C185.979 100.948 194.224 100.88 197.656 98.6562C198.839 97.8906 199.365 96.9479 199.229 95.8594C199.109 95.375 196.297 83.4375 196.422 81.4896C196.495 80.2969 196.151 79.2187 195.75 77.974C195.188 76.2396 194.552 74.2708 194.781 71.2917C195.172 66.1823 196.396 60.2604 197.479 55.0364C198.547 49.8802 199.469 45.4271 199.172 43.5885C198.813 40.9531 198.641 38.3073 198.661 35.651C198.651 34.8594 198.651 34.0781 198.646 33.3125C198.646 32.5364 198.641 31.7812 198.63 31.0573C198.625 30.3594 198.609 29.6875 198.589 29.0625C198.583 27.9062 198.453 26.7656 198.198 25.6354C197.568 23.4114 196.781 20.2239 195.948 16.8542C194.297 10.1979 192.25 1.91666 191.401 1.34374C191.208 1.18228 190.995 1.14582 190.755 1.22395C189.896 1.54687 189.286 3.91145 189.031 4.92187C188.734 6.07291 189.63 11.5573 190.354 15.9635C190.698 18.0885 191.026 20.0989 191.214 21.5364L191.302 22.1771C191.354 22.5573 191.411 22.9792 191.464 23.3906C191.557 24.1771 191.609 24.7239 191.62 25.1146C191.646 25.8906 191.604 27.3542 191.516 29.0208C191.479 29.6667 191.438 30.3437 191.385 31.026C191.354 31.4739 191.318 31.9219 191.276 32.3594C191.198 33.2448 191.115 34.0364 191.026 34.7135C190.99 34.9948 190.953 35.2656 190.911 35.5156C190.891 35.6771 190.859 35.9062 190.823 36.1927C190.604 37.8073 190.161 41.1771 189.26 42.7969C188.63 43.9323 186.677 44.8802 185.224 45.5C185.458 51.1927 187.292 52.1771 187.313 52.1875C187.422 52.2396 187.453 52.3229 187.401 52.4375C187.349 52.5469 187.266 52.5781 187.151 52.526C187.036 52.4739 184.339 51.0989 184.906 41.8646C184.927 41.5052 184.953 41.1302 184.984 40.7396L185.036 40.1406C185.651 32.4479 185.323 27.6771 184.036 25.5677L184.031 25.5573C183.839 25.1823 183.563 24.875 183.203 24.651C182.844 24.4271 182.448 24.3125 182.026 24.3073Z" fill="white"/>
<path d="M179.104 29.4427C179.062 29.4427 179.026 29.4323 178.995 29.4115C177.411 28.2813 175.344 26.9792 173.344 25.7188C170.661 24.0261 168.125 22.4323 167.089 21.4583C165.057 19.5573 165.266 16.6719 165.693 15.8438C165.766 15.6511 165.901 15.5313 166.099 15.4896C166.568 15.4375 167.656 16.1615 169.542 17.4531L169.786 17.6146C171.073 18.5313 172.406 19.3698 173.786 20.1354C174.583 20.5469 175.573 21.0261 176.62 21.5313C178.089 22.2396 179.75 23.0417 181.151 23.8073C181.297 23.8854 181.443 23.9636 181.583 24.0469C181.693 24.1042 181.719 24.1927 181.656 24.3021C181.594 24.4115 181.51 24.4323 181.401 24.375C181.26 24.2917 181.12 24.2136 180.974 24.1354C179.578 23.375 177.922 22.5781 176.458 21.8698C175.406 21.3646 174.417 20.8854 173.615 20.4688C172.219 19.6979 170.875 18.849 169.573 17.9271L169.333 17.7604C167.938 16.8073 166.5 15.8229 166.141 15.8646C166.146 15.8646 166.094 15.8854 166.026 16.0156C165.651 16.75 165.484 19.4427 167.344 21.1875C168.354 22.1302 170.875 23.7188 173.542 25.4011C175.547 26.6615 177.62 27.9688 179.208 29.1042C179.286 29.1563 179.307 29.2292 179.281 29.3125C179.255 29.4011 179.193 29.4427 179.104 29.4427Z" fill="white"/>
<path d="M189.38 35.2917C189.286 35.2813 189.214 35.2448 189.146 35.1823C188.771 34.875 188.339 33.9167 187.802 32.4583C187.365 31.6875 186.87 30.8229 186.396 29.9583C185.875 28.9792 185.307 28.0312 184.693 27.1146C184.625 27.0104 184.641 26.9219 184.74 26.8542C184.844 26.7813 184.927 26.7969 185 26.8958C185.625 27.8281 186.198 28.7865 186.724 29.776C186.849 30 186.969 30.224 187.094 30.4479C187.036 30.2708 186.974 30.0937 186.911 29.9062C186.76 29.4635 186.609 29.0104 186.458 28.5625C185.807 26.6302 185.198 24.8073 184.656 23.8021C183.875 22.3542 180.927 19.7344 178.328 17.4271C176.12 15.4583 174.208 13.7604 173.635 12.8438C172.536 11.0729 172.458 7.71875 173.042 6.92188C173.151 6.73438 173.313 6.66667 173.521 6.71875C173.995 6.84375 176.177 8.71875 179.719 11.7969C181.677 13.5 183.703 15.2656 184.938 16.2396C187.099 17.9531 190 20.6927 191.526 24.0365C191.578 24.151 191.547 24.2292 191.432 24.2812C191.323 24.3333 191.24 24.3021 191.188 24.1927C189.688 20.9167 186.833 18.2188 184.703 16.5365C183.469 15.5573 181.438 13.7917 179.474 12.0833C176.969 9.90104 173.849 7.19271 173.427 7.08333C173.406 7.07813 173.38 7.09896 173.344 7.14583C172.88 7.78125 172.917 10.974 173.953 12.6406C174.495 13.5156 176.479 15.276 178.578 17.1458C181.328 19.5885 184.172 22.1198 184.984 23.625C185.542 24.6562 186.161 26.4948 186.812 28.4427C186.964 28.8906 187.115 29.3438 187.266 29.7865C187.542 30.599 187.849 31.4896 188.146 32.3021C188.156 32.3229 188.172 32.3438 188.182 32.3698C189.667 34.9583 189.698 35.0781 189.51 35.2396C189.474 35.2708 189.427 35.2917 189.38 35.2917Z" fill="white"/>
<path d="M178.13 36.0625C178.094 36.0625 178.062 36.0573 178.036 36.0417C176.312 35.0729 174.854 34.2969 173.568 33.6146C171.781 32.7135 170.052 31.7188 168.375 30.6302C166.161 29.1146 165.839 26.75 166.281 25.901C166.344 25.75 166.458 25.651 166.615 25.6042C166.62 25.6042 166.656 25.599 166.661 25.599C167.036 25.5625 167.937 25.9479 169.396 26.6146L170.208 26.9896L170.177 27.1823L170.255 27.0104L170.667 27.2031C171.76 27.7031 172.958 28.2448 173.385 28.2865C174.094 28.3594 176.75 29.2135 178.979 30.1667C179.094 30.2135 179.13 30.2969 179.078 30.4115C179.031 30.526 178.948 30.5573 178.833 30.5104C176.526 29.526 173.953 28.724 173.349 28.6615C172.906 28.6198 171.974 28.2188 170.51 27.5469L169.24 26.9531C168.578 26.651 167.026 25.9479 166.708 25.974C166.693 25.974 166.656 26 166.615 26.0781C166.307 26.6615 166.443 28.8542 168.583 30.3177C170.25 31.401 171.969 32.3906 173.745 33.2813C175.031 33.9688 176.495 34.7448 178.219 35.7135C178.302 35.7604 178.333 35.8333 178.307 35.9271C178.286 36.0156 178.224 36.0625 178.125 36.0625H178.13Z" fill="white"/>
<path d="M193.297 6.14062C193.922 6.05729 191.927 0.0520815 191.349 0.0364575C190.099 0.0104148 192.062 6.30729 193.297 6.14062Z" fill="white"/>
<path d="M177.281 10.1927C177.854 9.9323 173.776 6.03647 173.224 6.20834C172.214 6.52605 176.583 10.5104 177.281 10.1927Z" fill="white"/>
<path d="M169.677 17.7708C167.995 16.625 166.562 15.625 166.12 15.6771C166.031 15.6875 165.938 15.7761 165.859 15.9323C165.505 15.5469 165.271 15.2344 165.443 15.0521C165.771 14.6875 168.589 16.4792 169.677 17.7708Z" fill="white"/>
<path d="M170.177 27.1823C168.484 26.401 167.042 25.6979 166.656 25.7917C166.557 25.8229 166.49 25.8906 166.448 25.9896C166.047 25.6823 165.948 25.5313 166.042 25.3438C166.266 24.9167 169.432 26.4115 170.177 27.1823Z" fill="white"/>
<path d="M182.172 30.849C185.333 30.8646 184.802 23.5521 182.594 23.2813C180.224 22.9896 178.755 30.8333 182.172 30.849Z" fill="white"/>
<path d="M187.359 90.1302C185.844 90.1406 184.333 90.0573 182.823 89.8854C182.167 89.8073 181.51 89.6927 180.865 89.5365C179.5 89.1979 178.818 88.75 178.792 88.1615C178.766 87.5573 179.448 87.0365 180.87 86.5729C181.073 86.5104 181.203 86.5782 181.271 86.7761C181.333 86.9792 181.266 87.1146 181.068 87.1771C179.755 87.6042 179.422 87.9896 179.427 88.1354C179.432 88.2709 179.776 88.6146 181.021 88.9219C181.641 89.0677 182.266 89.1771 182.901 89.25C187.297 89.7031 191.661 89.5209 196 88.6979C196.641 88.5677 197.271 88.4011 197.891 88.1927C199.068 87.7917 199.37 87.4271 199.365 87.2969C199.354 87.1406 198.943 86.7552 197.427 86.4323C197.224 86.3854 197.141 86.2604 197.188 86.0521C197.229 85.849 197.354 85.7657 197.562 85.8073C199.172 86.1511 199.969 86.6302 200 87.2656C200.026 87.849 199.401 88.349 198.094 88.7969C197.453 89.0104 196.797 89.1875 196.13 89.3229C193.943 89.7552 191.729 90.0052 189.5 90.0886C188.776 90.1146 188.062 90.1302 187.359 90.1302Z" fill="white"/>
<path d="M190.438 16.0938C190.333 16.0938 190.24 16.0937 190.146 16.0885C189.323 16.0573 188.891 15.8854 188.833 15.5625C188.771 15.2396 189.115 14.9167 189.891 14.5833C190.005 14.5312 190.089 14.5625 190.141 14.6771C190.188 14.7969 190.156 14.8802 190.036 14.9271C189.323 15.2396 189.193 15.4531 189.198 15.4948C189.208 15.5312 189.401 15.6823 190.161 15.7135C191.063 15.724 191.964 15.6406 192.849 15.4583C193.781 15.2969 194.688 15.0312 195.557 14.6615C196.161 14.3802 196.266 14.1875 196.26 14.1562C196.25 14.125 196.068 13.9792 195.359 13.9427C195.234 13.9375 195.177 13.8698 195.182 13.7448C195.193 13.6198 195.255 13.5625 195.38 13.5677C196.161 13.6042 196.568 13.776 196.63 14.0885C196.682 14.3906 196.385 14.6875 195.719 15C194.818 15.3854 193.885 15.6615 192.917 15.8281C192.099 15.9948 191.271 16.0781 190.438 16.0938Z" fill="white"/>
<path d="M10.1042 100.76C7.04687 100.76 3.97916 100.161 2.14062 98.9687C0.848953 98.1302 0.244787 97.0417 0.401036 95.8125C0.432287 95.6719 3.32812 83.4062 3.20833 81.5156C3.12499 80.25 3.48437 79.1406 3.89583 77.8594C4.4427 76.1562 5.0677 74.2292 4.84374 71.3177C4.45833 66.2344 3.23437 60.3281 2.15624 55.1146C1.08333 49.9219 0.151036 45.4323 0.458328 43.5312C0.812494 40.9114 0.984369 38.2864 0.963536 35.6458C0.973953 34.8542 0.979161 34.0729 0.979161 33.3125C0.984369 32.5312 0.984369 31.776 0.994786 31.0521C0.999994 30.349 1.01562 29.6771 1.03645 29.0521C1.04166 27.8646 1.17708 26.6875 1.4427 25.5312C2.07291 23.3125 2.85937 20.1302 3.6927 16.7604C5.9427 7.65624 7.48958 1.64062 8.39062 1.03124C8.6927 0.796865 9.02083 0.744783 9.37499 0.869783C10.2917 1.21874 10.8594 2.97916 11.3333 4.82812C11.651 6.05207 10.8229 11.1198 10.0208 16.0208C9.67187 18.1458 9.34374 20.151 9.15624 21.5833L9.07291 22.2187C9.02083 22.5989 8.96354 23.0208 8.91145 23.4375C8.81249 24.2135 8.76562 24.75 8.7552 25.125C8.72916 25.8854 8.77083 27.3698 8.85937 29C8.89583 29.6458 8.93749 30.3229 8.98958 30.9948C9.02083 31.4427 9.05729 31.8906 9.09895 32.3281C9.17708 33.2083 9.26041 33.9948 9.34895 34.6667C9.3802 34.9427 9.42187 35.2083 9.45833 35.4583C9.48437 35.6198 9.51562 35.8542 9.55208 36.1406C9.76041 37.7396 10.2031 41.0573 11.0677 42.6146C11.6719 43.7031 13.8229 44.6823 14.7865 45.0989C14.8125 44.1562 14.7969 43.0885 14.724 41.8906C14.7031 41.5312 14.6719 41.1562 14.6406 40.7708L14.5937 40.1667C13.9635 32.276 14.2969 27.5677 15.651 25.3646L15.6562 25.3542C15.8802 24.9219 16.2031 24.5781 16.6198 24.3229C17.0365 24.0677 17.4896 23.9375 17.9792 23.9323C17.9896 23.9323 18 23.9323 18.0104 23.9323C18.2031 23.9375 18.3906 23.9687 18.5729 24.0312C18.8021 24.1146 19.0104 24.2396 19.1927 24.401C19.9896 25.0989 20.5729 26.5833 21.0833 29.2187C21.151 29.5677 21.2135 29.9271 21.2812 30.3073C21.5521 31.9323 21.8021 33.8594 22.0573 35.8542L22.1823 36.8177C22.2917 37.6667 22.401 38.5469 22.5208 39.4635C22.5937 40.0208 22.6719 40.5885 22.75 41.1719C23.3281 45.3958 23.9219 48.9167 24.6198 52.2604C26.3229 60.3958 25.4115 66.7031 21.6667 72.7083C19.1979 76.6667 18.3802 85.4583 19.4844 96.224C19.599 97.3385 18.9948 98.3333 17.7448 99.1042C15.9375 100.214 13.026 100.76 10.1042 100.76ZM9.04166 1.18228C8.8802 1.1927 8.73437 1.24478 8.59895 1.34374C7.74999 1.91666 5.70312 10.1979 4.05729 16.8542C3.21874 20.2239 2.43229 23.4114 1.80208 25.6354C1.54687 26.7656 1.41666 27.9062 1.41145 29.0625C1.39062 29.6875 1.37499 30.3594 1.36979 31.0573C1.35937 31.7812 1.35937 32.5364 1.35416 33.3125C1.35416 34.0781 1.34895 34.8594 1.33854 35.651C1.35937 38.3073 1.18749 40.9531 0.828119 43.5885C0.536453 45.4271 1.45312 49.8802 2.52083 55.0364C3.60416 60.2604 4.82812 66.1823 5.21874 71.2917C5.44791 74.2708 4.81249 76.2396 4.2552 77.974C3.85416 79.2187 3.5052 80.2969 3.58333 81.4896C3.70312 83.4375 0.89062 95.375 0.770828 95.8802C0.63541 96.9479 1.16145 97.8906 2.34374 98.6562C5.77604 100.88 14.0208 100.948 17.5469 98.7812C18.6875 98.0833 19.2135 97.2344 19.1094 96.2604C18 85.4167 18.8333 76.5365 21.349 72.5104C25.0365 66.5937 25.9375 60.3698 24.2552 52.3385C23.5573 48.9844 22.9583 45.4531 22.3802 41.2239C22.3021 40.6406 22.224 40.0729 22.151 39.5104C22.0312 38.5989 21.9167 37.7187 21.8073 36.8646L21.6875 35.901C21.4323 33.9114 21.1823 31.9896 20.9115 30.3698C20.8437 29.9948 20.7812 29.6354 20.7135 29.2917C20.2292 26.7812 19.6667 25.3177 18.9479 24.6823C18.8021 24.5521 18.6354 24.4531 18.4479 24.3854C18.3021 24.3385 18.1562 24.3125 18.0052 24.3073C17.1667 24.2917 16.4896 24.7083 15.9687 25.5625L15.9635 25.5677C14.6771 27.6823 14.349 32.4479 14.9635 40.1406L15.0156 40.7396C15.0469 41.1302 15.0729 41.5052 15.099 41.8646C15.6667 51.0989 12.9635 52.4739 12.849 52.526C12.7344 52.5781 12.651 52.5469 12.599 52.4375C12.5469 52.3229 12.5781 52.2396 12.6875 52.1875C12.7083 52.1771 14.5417 51.1927 14.776 45.5C13.3229 44.8802 11.375 43.9323 10.7396 42.7969C9.83854 41.1771 9.39583 37.8073 9.18229 36.1927C9.14062 35.9062 9.11458 35.6771 9.08854 35.5156C9.04687 35.2656 9.01041 34.9948 8.97395 34.7135C8.88541 34.0364 8.80208 33.2448 8.72395 32.3594C8.68229 31.9219 8.65104 31.4739 8.61458 31.026C8.5677 30.3437 8.52083 29.6667 8.48958 29.0208C8.39583 27.3542 8.35416 25.8958 8.3802 25.1146C8.39062 24.7239 8.4427 24.1771 8.53645 23.3906C8.58854 22.9739 8.65104 22.5469 8.70312 22.1614L8.78645 21.5364C8.97395 20.0989 9.30208 18.0885 9.65104 15.9583C10.3698 11.5573 11.2656 6.07291 10.974 4.92187C10.7135 3.91145 10.1042 1.54687 9.24479 1.22395C9.17708 1.19791 9.11458 1.18228 9.04166 1.18228Z" fill="white"/>
<path d="M20.901 29.4427C20.8073 29.4427 20.75 29.4011 20.7187 29.3125C20.6927 29.2292 20.7135 29.1563 20.7917 29.1042C22.3802 27.9688 24.4531 26.6615 26.4583 25.4011C29.125 23.7188 31.6458 22.1302 32.6562 21.1875C34.5156 19.4427 34.349 16.75 33.974 16.0156C33.9062 15.8802 33.8542 15.8594 33.8542 15.8594C33.5 15.8125 32.0625 16.8125 30.6667 17.7656L30.4271 17.9271C29.125 18.849 27.7812 19.6979 26.3854 20.4688C25.5885 20.8854 24.5937 21.3646 23.5417 21.8698C22.0781 22.5781 20.4219 23.375 19.026 24.1354C18.8854 24.2136 18.7396 24.2917 18.599 24.375C18.4948 24.4323 18.4062 24.4115 18.3437 24.3021C18.2865 24.1927 18.3073 24.1042 18.4167 24.0469C18.5573 23.9636 18.7031 23.8854 18.849 23.8073C20.25 23.0417 21.9115 22.2396 23.3802 21.5313C24.4271 21.0261 25.4219 20.5469 26.2135 20.1354C27.5937 19.3698 28.9271 18.5313 30.2187 17.6146L30.4531 17.4531C32.3437 16.1615 33.4323 15.4375 33.901 15.4896C34.099 15.5313 34.2396 15.6511 34.3073 15.8438C34.7344 16.6719 34.9427 19.5573 32.9115 21.4583C31.875 22.4323 29.3437 24.0261 26.6562 25.7188C24.6562 26.9792 22.5885 28.2813 21.0052 29.4115C20.974 29.4323 20.9375 29.4427 20.901 29.4427Z" fill="white"/>
<path d="M10.6198 35.2917C10.5729 35.2917 10.526 35.2708 10.4896 35.2396C10.3021 35.0781 10.3333 34.9583 11.8177 32.3698C11.8281 32.3438 11.8437 32.3229 11.8542 32.2969C12.1562 31.4896 12.4583 30.599 12.7344 29.7865C12.8854 29.3438 13.0365 28.8906 13.1875 28.4427C13.8437 26.4948 14.4583 24.6562 15.0156 23.625C15.8281 22.1198 18.6719 19.5885 21.4219 17.1458C23.5208 15.276 25.5052 13.5156 26.0469 12.6406C27.0833 10.974 27.1198 7.78125 26.6562 7.14583C26.6198 7.09896 26.5937 7.07813 26.5729 7.08333C26.151 7.19271 23.0365 9.90104 20.5312 12.0781C18.5677 13.7865 16.5365 15.5521 15.2969 16.5365C13.1667 18.2188 10.3125 20.9167 8.8125 24.1927C8.76041 24.3021 8.67708 24.3333 8.5677 24.2812C8.45312 24.2292 8.42187 24.151 8.47395 24.0365C9.99999 20.6927 12.901 17.9531 15.0625 16.2396C16.2969 15.2656 18.3229 13.5 20.2865 11.7969C23.8229 8.71875 26.0052 6.83854 26.4792 6.71875C26.6875 6.66667 26.849 6.73438 26.9583 6.92188C27.5417 7.71875 27.4635 11.0729 26.3646 12.8438C25.7917 13.7604 23.8854 15.4583 21.6719 17.4271C19.0729 19.7344 16.125 22.3542 15.3437 23.8021C14.8021 24.8073 14.1927 26.6302 13.5469 28.5625C13.3958 29.0104 13.2396 29.4635 13.0885 29.9062C13.026 30.0937 12.9635 30.2708 12.9062 30.4479C13.0312 30.224 13.151 30 13.276 29.776C13.8021 28.7865 14.375 27.8281 15 26.8958C15.0729 26.7969 15.1615 26.7813 15.2604 26.8542C15.3646 26.9219 15.375 27.0104 15.3073 27.1094C14.6927 28.0313 14.125 28.9792 13.6042 29.9583C13.1302 30.8229 12.6406 31.6875 12.1979 32.4583C11.6615 33.9167 11.2292 34.875 10.8542 35.1823C10.7917 35.2448 10.7135 35.2813 10.6198 35.2917Z" fill="white"/>
<path d="M21.875 36.0625C21.776 36.0625 21.7135 36.0156 21.6927 35.9271C21.6667 35.8333 21.6979 35.7604 21.7813 35.7135C23.5104 34.7448 24.9688 33.9688 26.2552 33.2813C28.0313 32.3906 29.75 31.401 31.4167 30.3177C33.5573 28.8542 33.6979 26.6615 33.3854 26.0781C33.349 26 33.3125 25.974 33.3021 25.974C32.974 25.9427 31.4219 26.651 30.7656 26.9531L29.9479 27.3333L29.9063 27.3542L29.4896 27.5469C28.026 28.2188 27.0938 28.6198 26.6563 28.6615C26.0469 28.724 23.474 29.526 21.1667 30.5104C21.0521 30.5573 20.9688 30.526 20.9219 30.4115C20.875 30.2969 20.9063 30.2135 21.0208 30.1667C23.25 29.2135 25.9063 28.3594 26.6146 28.2865C27.0417 28.2448 28.2396 27.7031 29.3333 27.2031L29.7448 27.0104L29.8698 27.1615L29.7917 26.9896L30.6042 26.6146C32.0625 25.9427 32.974 25.5625 33.3281 25.599C33.3333 25.599 33.375 25.6042 33.3802 25.6042C33.5417 25.651 33.6563 25.75 33.7188 25.901C34.1615 26.75 33.8385 29.1146 31.625 30.6302C29.9479 31.7188 28.2188 32.7135 26.4323 33.6146C25.1458 34.2969 23.6875 35.0729 21.9635 36.0417C21.9375 36.0573 21.9063 36.0625 21.875 36.0625Z" fill="white"/>
<path d="M6.70832 6.14062C6.07811 6.05729 8.07291 0.0520815 8.65624 0.0364575C9.90103 0.0104148 7.93749 6.30729 6.70832 6.14062Z" fill="white"/>
<path d="M22.7188 10.1927C22.1458 9.9323 26.224 6.03647 26.776 6.20834C27.7865 6.52605 23.4167 10.5104 22.7188 10.1927Z" fill="white"/>
<path d="M30.3229 17.7708C32.0052 16.625 33.4375 15.625 33.8802 15.6771C33.9688 15.6875 34.0625 15.7761 34.1406 15.9323C34.4948 15.5469 34.7292 15.2344 34.5625 15.0521C34.2292 14.6875 31.4115 16.4792 30.3229 17.7708Z" fill="white"/>
<path d="M29.8281 27.1823C31.5156 26.4011 32.9583 25.6979 33.3438 25.7917C33.4427 25.8229 33.5156 25.8906 33.5521 25.9896C33.9583 25.6823 34.0521 25.5313 33.9583 25.3438C33.7344 24.9167 30.5677 26.4115 29.8281 27.1823Z" fill="white"/>
<path d="M17.8333 30.849C14.6719 30.8646 15.1979 23.5521 17.4062 23.2813C19.776 22.9896 21.2448 30.8333 17.8333 30.849Z" fill="white"/>
<path d="M12.6354 90.1302C11.9375 90.1302 11.2187 90.1146 10.5 90.0833C8.27604 90.0052 6.07812 89.75 3.89583 89.3177C3.22916 89.1823 2.57812 89.0104 1.93749 88.7917C0.640619 88.3438 0.0208275 87.8438 0.0468688 87.2656C0.0729115 86.6354 0.869786 86.1563 2.46874 85.8125C2.67708 85.7708 2.79687 85.849 2.84374 86.0521C2.88541 86.2604 2.80729 86.3802 2.60416 86.4271C1.09374 86.75 0.677077 87.1354 0.671869 87.2969C0.666661 87.4375 0.968743 87.7917 2.14062 88.1979C2.76041 88.4063 3.38541 88.5729 4.02604 88.7031C6.17187 89.125 8.33854 89.375 10.526 89.4531C12.7135 89.5625 14.8958 89.4948 17.0729 89.2552C17.7083 89.1823 18.3333 89.0729 18.9479 88.9219C20.1875 88.6146 20.5312 88.2865 20.5365 88.1354C20.5417 87.9896 20.2083 87.6042 18.9062 87.1771C18.7031 87.1094 18.6354 86.9792 18.7031 86.7813C18.7656 86.5781 18.901 86.5104 19.099 86.5781C20.5156 87.0417 21.1927 87.5573 21.1667 88.1615C21.1406 88.75 20.4635 89.1979 19.099 89.5365C18.4583 89.6875 17.8073 89.8021 17.151 89.8802C15.651 90.0521 14.1458 90.1354 12.6354 90.1302Z" fill="white"/>
</svg>
