<svg xmlns="http://www.w3.org/2000/svg" fill="none" viewBox="0 0 294 200">
  <path fill="#B48F57" d="M87.2605 105.148v40.31h8.151v-39.545c11.7445 0 20.4425 8.808 26.9685 21.198 2.823 5.53 5.15 11.796 6.982 18.347h.83c-1.873-6.682-4.301-13.094-7.379-18.779-6.308-12.615-15.547-21.531-27.4015-21.531h-8.151Zm47.1875 40.31h8.156v-40.31h-8.156v40.31Zm18.055-44.054c-1.364-5.0801-1.65-10.1995-.996-15.1123h8.07c-.124 4.4548.366 8.8845 1.405 12.9353 4.349 16.635 20.224 33.818 38.386 28.818 4.89-1.089 8.588-3.808 11.63-6.745V94.227c-13.261 0-25.547.4375-33.271 7.505v-8.3747h41.536v22.7237c-4.677 5.979-11.526 10.438-19.682 12.505-20.224 5.98-41.422-6.526-47.078-27.182Z"/>
  <path fill="#D8CBC4" fill-rule="evenodd" d="M125.311 83.276v-.0364c.609 1.4219.948 2.9792.948 4.625 0 6.3854-5.141 11.5781-11.459 11.5781-6.328 0-11.458-5.1927-11.458-11.5781 0-1.9011.453-3.6927 1.26-5.2761-.015.2344-.02.4532-.02.6875 0 5.6771 4.64 10.2813 10.369 10.2813 5.714 0 10.36-4.6146 10.36-10.2813Z" clip-rule="evenodd"/>
  <path fill="#CBB8AD" d="M104.566 82.5677C103.722 84.224 103.3 86 103.3 87.8646c0 6.401 5.157 11.6198 11.5 11.6198 6.344 0 11.5-5.2188 11.5-11.6198 0-1.6146-.323-3.1719-.958-4.6406-.005-.0156-.021-.0261-.047-.0261-.016 0-.031.0261-.031.0417v.0365c0 5.651-4.63 10.2395-10.323 10.2395-5.693 0-10.328-4.5937-10.328-10.2395 0-.224.01-.4532.026-.6875 0-.0157-.011-.0313-.037-.0417-.015-.0052-.031 0-.036.0208Zm-.026.7084c0 5.6927 4.667 10.3229 10.401 10.3229 5.682 0 10.312-4.5417 10.401-10.1615.578 1.4011.87 2.8959.87 4.4271 0 6.3646-5.125 11.5365-11.417 11.5365-6.286 0-11.411-5.1719-11.411-11.5365 0-1.7812.395-3.4948 1.161-5.0833-.005.1614-.005.3281-.005.4948Z"/>
  <path fill="#D8CBC4" d="M197.769 66.6146c-34.297-24.026-70.562-43.401-102.1093-54.5729l-2.4896-.8594c.0937-.5.1458-1.0052.151-1.51562.0052-1.03646-.1667-2.04167-.5104-3.02083-.3385-.97396-.8385-1.86459-1.4896-2.67188-.651-.80208-1.4167-1.47396-2.3021-2.01562-.8802-.53646-1.8281-.91146-2.8437-1.125003C85.1649.619806 84.144.588555 83.118.729181c-1.0208.140625-1.9948.447919-2.9115.921879-.9218.47916-1.7343 1.09375-2.4375 1.85416-.7031.75521-1.2604 1.60938-1.6718 2.5625-6.0678-1.55208-12.2084-2.66146-18.4323-3.32812-.0625-.33334-.1771-.64584-.3438-.94271-.1667-.29688-.375-.55729-.6302-.78125-.2552-.229168-.5365-.406251-.849-.536459-.3125-.130208-.6406-.208334-.9791-.229167-.3386-.020833-.6719.010416-1 .098958-.3281.088542-.6302.229167-.9115.421875-.2812.1875-.5208.421873-.7291.692713-.2032.27083-.3542.5677-.4584.89062-9.7135-.27604-17.2031 1.48438-22.0052 5.32813C19.1597 16.1511 22.7847 33.5261 39.9565 56.5886c16.9844 22.8125 45.2292 48.5674 79.5265 72.6254 24.057 16.947 49.437 31.583 76.156 43.911.76 6.813-1.36 15.724-6.5 25.891 4.844-9.552 10.646-16.875 16.724-21.448 7.958 3.312 15.62 6.229 22.864 8.495 13.016 4.145 24.683 6.614 34.448 7.208.177.651.537 1.182 1.063 1.594.531.416 1.135.63 1.807.645.672.016 1.281-.171 1.833-.557.547-.39.927-.906 1.136-1.542 7.937-.177 14.25-1.859 18.484-5.244 21.584-17.308-18.666-71.792-89.729-121.5524Zm88.12 120.4324c-3.86 3.088-9.573 4.682-16.75 4.917-.052-.355-.167-.693-.344-1.011-.177-.318-.401-.594-.672-.828-.271-.24-.578-.422-.916-.552-.339-.13-.688-.198-1.047-.203-.365-.005-.714.052-1.058.172-.343.119-.651.297-.932.526-.281.229-.51.5-.693.807-.187.313-.312.646-.375 1-14.671-.87-34.036-6.224-55.781-15.328 5.828-3.932 11.828-5.38 17.432-3.734-11.927-3.365-13.27-17.86-3.448-37.271-9.822 19.411-23.427 29.125-34.958 24.989 1.172.412 2.271.969 3.292 1.672 1.021.708 1.927 1.537 2.724 2.49.791.953 1.448 1.995 1.958 3.125.516 1.13.865 2.312 1.057 3.536-26.099-12.213-50.921-26.614-74.474-43.213-34.1246-23.896-62.2079-49.5368-79.0777-72.2243C25.1492 33.5 21.4253 16.8021 31.3732 8.85418c4.3958-3.52604 11.2865-5.15625 20.276-4.97917.0625.33334.1771.64584.349.94271.1667.29167.375.55209.6302.77604.2552.22396.5365.40105.849.53646.3125.13021.6354.20313.9739.22917.3386.02083.6719-.01042 1-.09896.3281-.08854.6302-.22396.9115-.41667.2864-.18749.526-.41666.7344-.6875.2031-.26562.3593-.5625.4687-.88541 6.0729.67187 12.0677 1.77604 17.9844 3.32812-.1667.68229-.2552 1.375-.2656 2.07813-.0053.526.0364 1.0521.1197 1.5729.0886.5208.2188 1.0313.3907 1.5313.1771.4948.3958.9739.6562 1.4323.2604.4635.5573.8958.8959 1.302.3385.4063.7083.7813 1.1093 1.1198.4063.3438.8334.6459 1.2917.9115.4531.2656.9323.4896 1.4271.6719.4948.1823 1.0052.3177 1.526.4062.5209.0938 1.0417.1354 1.5729.1354.5261 0 1.0521-.0468 1.573-.1406.5156-.0937 1.026-.2344 1.5208-.4167.4948-.1823.9687-.4114 1.4271-.677.4531-.2657.8854-.573 1.2864-.9167.4011-.3438.7657-.7188 1.1042-1.125.3333-.4115.6302-.8438.8906-1.3073.2552-.4583.474-.9375.6459-1.4375l2.1562.75C126.186 24.5729 162.238 43.8333 196.41 67.7344c70.13 49.1406 110.291 102.6506 89.479 119.3126Z"/>
  <path fill="#B48F57" d="M52.7515 146.991h9.1354L29.3765 70.2256h-.7604C20.3505 84.2517 10.5692 104.043 4.8036 119.59 2.19422 126.549.673391 132.637.126517 137.424c-.541667 4.89.656249 8.156 3.588543 9.458.76042.651 1.08854.651 1.73958.76 4.89586.219 6.74476-3.802 8.80726-9.239 3.4792-7.938 7.724-19.136 26.2032-20.875l12.2864 29.463Zm-12.6094-30.229c-18.8125 1.849-23.1614 13.266-26.75 21.422-1.7395 5-3.47912 8.807-7.82808 8.479-.54167-.323-.8698-.323-1.52084-.542-2.60937-.869-3.369789-4.239-3.151038-8.697.541668-4.678 2.062498-10.657 4.671878-17.615C10.1317 107.194 17.5276 92.4079 24.1578 79.5798l15.9843 37.1822ZM246.59 95.7777c3.156 12.8333 16.203 12.1773 22.505 19.3543v-8.589c-14.896 0-22.505-3.041-22.505-17.9372V70.9912h8.917c13.265 0 18.916.5417 26.64 7.9375v-8.7031H238.22v76.7654h43.271l2.505-16.094c-3.916 10.985-9.573 15.224-19.031 15.224H246.59V95.7777Z"/>
</svg>