<svg xmlns="http://www.w3.org/2000/svg" fill="none" viewBox="0 0 315 199">
  <path fill="#292727" d="M87.2605 88.6057v40.3113h8.151V89.3713c11.7445 0 20.4425 8.8073 26.9685 21.1977 2.823 5.53 5.15 11.796 6.982 18.348h.83c-1.873-6.682-4.301-13.095-7.379-18.78-6.308-12.6146-15.547-21.5313-27.4015-21.5313h-8.151Zm47.1875 40.3113h8.156V88.6057h-8.156v40.3113Zm18.055-44.0547c-1.364-5.0802-1.65-10.1995-.996-15.1123h8.07c-.124 4.4548.366 8.8845 1.405 12.9352 4.349 16.6355 20.224 33.8178 38.385 28.8178 4.891-1.089 8.589-3.807 11.631-6.745V77.6852c-13.261 0-25.547.4375-33.271 7.5053v-8.375h41.536v22.7239c-4.677 5.9796-11.526 10.4376-19.682 12.5056-20.224 5.979-41.422-6.526-47.078-27.1827Z"/>
  <path fill="#B48F57" d="M217.972 66.4271C183.675 42.401 147.41 23.026 115.863 11.8542l-2.49-.8594c.094-.5.141-1.00522.146-1.51563.005-1.03646-.162-2.04167-.505-3.02084-.344-.97396-.839-1.86458-1.49-2.66666-.651-.8073-1.417-1.47917-2.302-2.02084-.88-.53646-1.828-.911457-2.844-1.124998-1.01-.213541-2.031-.244792-3.057-.104167-1.026.140626-1.995.447918-2.917.921875-.9163.47917-1.7288 1.09375-2.432 1.85417-.7083.75521-1.2656 1.60937-1.6719 2.5625-6.0677-1.55209-12.2083-2.66146-18.4322-3.32813-.0625-.33333-.1771-.64583-.3438-.94271-.1667-.29687-.375-.55729-.6302-.781246-.2552-.223959-.5365-.406251-.849-.536459-.3177-.130208-.6406-.2083331-.9791-.2291664-.3386-.0208333-.6719.010417-1 .0989584-.3282.088541-.6302.229167-.9115.421875-.2812.1875-.526.421878-.7292.692708-.2031.27083-.3593.56771-.4635.89063-9.7135-.27084-17.1979 1.48437-22.0052 5.32812-10.599 8.46871-6.974 25.84371 10.2031 48.90621 16.9844 22.8125 45.2295 48.568 79.5265 72.625 24.052 16.948 49.437 31.583 76.156 43.912.76 6.812-1.36 15.729-6.5 25.89 4.844-9.552 10.646-16.875 16.724-21.448 7.958 3.313 15.614 6.229 22.864 8.495 13.016 4.146 24.683 6.615 34.448 7.208.177.651.532 1.183 1.063 1.594.531.417 1.13.63 1.807.646.672.016 1.281-.172 1.833-.557.547-.391.927-.907 1.136-1.542 7.932-.177 14.25-1.859 18.484-5.245 21.578-17.307-18.672-71.791-89.729-121.5519Zm88.12 120.4319c-3.86 3.089-9.578 4.683-16.75 4.917-.057-.354-.172-.693-.344-1.01-.177-.318-.401-.594-.672-.828-.276-.24-.578-.422-.916-.553-.339-.13-.688-.197-1.053-.203-.359-.005-.713.052-1.052.172-.343.12-.651.297-.932.526-.281.229-.51.5-.698.808-.182.312-.307.645-.375 1.005-14.666-.875-34.036-6.229-55.776-15.334 5.828-3.932 11.828-5.38 17.432-3.734-11.932-3.365-13.276-17.859-3.448-37.271-9.828 19.412-23.427 29.125-34.958 24.99 1.172.411 2.271.968 3.292 1.672 1.015.708 1.927 1.536 2.719 2.489.796.953 1.453 1.995 1.963 3.125.511 1.136.865 2.313 1.057 3.537-26.099-12.209-50.921-26.615-74.474-43.214-34.125-23.896-62.2079-49.5363-79.0829-72.2238C45.347 33.3125 41.6283 16.6146 51.5762 8.66667c4.3958-3.52084 11.2812-5.15626 20.276-4.97917.0625.33333.1771.64583.3438.94271.1666.29166.3802.55208.6354.77604.25.22396.5365.40104.849.53646.3125.13021.6354.20312.9739.22916.3386.02084.6719-.01041 1-.09895.3281-.08855.6302-.22396.9115-.41146.2812-.19271.526-.42188.7291-.6875.2084-.27084.3646-.56771.474-.89063 6.0729.67188 12.0677 1.77604 17.9792 3.32813-.1615.68229-.25 1.375-.2605 2.07812-.0052.52602.0313 1.05212.1198 1.57292.0834.5208.2136 1.0312.3907 1.5312.1771.4948.3958.974.6562 1.4375.2604.4584.5573.8907.8959 1.2969.3333.4063.7031.7813 1.1093 1.1198.4011.3438.8334.6459 1.2865.9115.458.2656.937.4896 1.432.6718.495.1823 1.005.3178 1.526.4063.516.0937 1.042.1406 1.573.1354.526 0 1.052-.0469 1.568-.1406.521-.0938 1.031-.2344 1.526-.4167.495-.1823.969-.4062 1.427-.6771.453-.2656.88-.5729 1.281-.9166.401-.3438.771-.7188 1.104-1.125.339-.4115.636-.8438.891-1.3021.261-.4636.474-.9427.651-1.4427l2.151.75c31.313 11.0833 67.365 30.3437 101.537 54.2448 70.125 49.1411 110.291 102.6511 89.479 119.3121Z"/>
  <path fill="#B48F57" fill-rule="evenodd" d="M125.311 66.7344v-.0365c.609 1.4219.948 2.9792.948 4.625 0 6.3854-5.141 11.5781-11.459 11.5781-6.328 0-11.458-5.1927-11.458-11.5781 0-1.901.453-3.6927 1.26-5.276-.015.2343-.02.4531-.02.6875 0 5.6771 4.64 10.2812 10.369 10.2812 5.714 0 10.36-4.6146 10.36-10.2812Z" clip-rule="evenodd"/>
  <path fill="#B48F57" d="M104.566 66.0261c-.844 1.6562-1.266 3.4322-1.266 5.2968 0 6.4011 5.157 11.6198 11.5 11.6198 6.344 0 11.5-5.2187 11.5-11.6198 0-1.6146-.323-3.1718-.958-4.6406-.005-.0156-.021-.026-.047-.026-.016 0-.031.026-.031.0416v.0365c0 5.651-4.63 10.2396-10.323 10.2396-5.693 0-10.328-4.5938-10.328-10.2396 0-.224.01-.4531.026-.6875 0-.0156-.011-.0313-.037-.0417-.015-.0052-.031 0-.036.0209Zm-.026.7083c0 5.6927 4.667 10.3229 10.401 10.3229 5.682 0 10.312-4.5417 10.401-10.1615.578 1.4011.87 2.8959.87 4.4271 0 6.3646-5.125 11.5365-11.417 11.5365-6.286 0-11.411-5.1719-11.411-11.5365 0-1.7812.395-3.4948 1.161-5.0833-.005.1615-.005.3281-.005.4948Z"/>
  <path fill="#292727" d="M52.7515 130.449h9.1354L29.3765 53.6838h-.7604C20.3505 67.7099 10.5692 87.5015 4.8036 103.048 2.19422 110.007.673391 116.095.126517 120.882c-.541667 4.89.656249 8.156 3.588543 9.458.76042.651 1.08854.651 1.73958.761 4.89586.218 6.74476-3.803 8.80726-9.24 3.4792-7.938 7.724-19.135 26.2032-20.875l12.2864 29.463ZM40.1421 100.22c-18.8125 1.849-23.1614 13.266-26.75 21.422-1.7395 5-3.47912 8.807-7.82808 8.479-.54167-.323-.8698-.323-1.52084-.541-2.60937-.87-3.369789-4.24-3.151038-8.698.541668-4.677 2.062498-10.656 4.671878-17.615C10.1317 90.6526 17.5276 75.8661 24.1578 63.038l15.9843 37.182ZM246.59 79.2359c3.156 12.8334 16.203 12.1771 22.505 19.3542v-8.5886c-14.896 0-22.505-3.0416-22.505-17.9375V54.4495h8.917c13.265 0 18.916.5416 26.64 7.9375v-8.7032H238.22v76.7652h43.271l2.505-16.093c-3.916 10.984-9.573 15.224-19.031 15.224H246.59V79.2359Z"/>
</svg>
